<?xml version="1.0" encoding="UTF-8"?>
<svg version="1.1" xmlns="http://www.w3.org/2000/svg" width="2000" height="2000">
<path d="M0 0 C14.5737617 10.43174522 20.0730243 27.1732382 24 44 C24 45.32 24 46.64 24 48 C25.45922693 47.88590407 26.91740598 47.75834456 28.375 47.625 C29.18710938 47.55539062 29.99921875 47.48578125 30.8359375 47.4140625 C33.20334191 47.17107412 33.20334191 47.17107412 35 45 C36.91015625 44.62109375 36.91015625 44.62109375 39.0625 44.4375 C42.76736617 44.44086552 42.76736617 44.44086552 44 43 C46.31082773 42.43118087 48.63644097 41.97236639 50.96875 41.5 C52.98233957 41.1901935 52.98233957 41.1901935 54 40 C56.53991784 39.4286665 59.0671475 38.91396272 61.625 38.4375 C62.67494141 38.22963867 62.67494141 38.22963867 63.74609375 38.01757812 C67.19528659 37.3680548 70.17460894 37.00459497 73.7109375 37.09765625 C76.99556018 37.28362822 76.99556018 37.28362822 79.30290222 35.5151825 C82.59534035 33.66554817 84.68284585 33.6371766 88.44262695 33.65942383 C90.36405266 33.65976372 90.36405266 33.65976372 92.32429504 33.66011047 C93.71229404 33.67542807 95.10028943 33.69107602 96.48828125 33.70703125 C97.91602634 33.71263074 99.34377722 33.71689917 100.77153015 33.71989441 C104.51828088 33.73131551 108.26467936 33.7607586 112.0112915 33.79400635 C115.83885941 33.82476658 119.66648458 33.83841242 123.49414062 33.85351562 C130.99625384 33.88563139 138.49807745 33.93679403 146 34 C146.33 34.66 146.66 35.32 147 36 C149.49717667 36.43272376 151.92096623 36.75052949 154.4375 37 C155.90134232 37.16400501 157.36488904 37.33067037 158.828125 37.5 C159.54291016 37.5825 160.25769531 37.665 160.99414062 37.75 C166.90171966 38.48629028 172.54472143 39.57543175 178 42 C181.29636407 43.2182215 184.19328786 44.02620852 187.6875 44.5 C191 45 191 45 194 47 C197.0761916 47.84394831 200.17208317 48.52444037 203.28515625 49.21875 C206 50 206 50 208 52 C209.74935334 52.72115049 211.52457261 53.38063679 213.3125 54 C216.91152622 55.25695868 220.46990668 56.55967048 224 58 C224 58.66 224 59.32 224 60 C224.65226562 60.17015625 225.30453125 60.3403125 225.9765625 60.515625 C231.38578565 62.01552759 235.39727516 63.7123394 240 67 C241.74182453 67.95260356 243.4928543 68.88846254 245.25 69.8125 C249.93805408 72.33439359 254.25270509 75.14895199 258.56640625 78.26171875 C261.73818372 80.52727408 265.00483729 82.63403446 268.28515625 84.73828125 C270 86 270 86 271 88 C271.99 88.33 272.98 88.66 274 89 C274 89.66 274 90.32 274 91 C274.928125 91.4640625 274.928125 91.4640625 275.875 91.9375 C277.25 92.625 278.625 93.3125 280 94 C280 94.66 280 95.32 280 96 C280.8353125 96.37125 280.8353125 96.37125 281.6875 96.75 C284.42410913 98.22924818 286.67650869 99.93467439 289 102 C289 102.66 289 103.32 289 104 C289.66 104 290.32 104 291 104 C292.625 105.375 292.625 105.375 294 107 C294 107.66 294 108.32 294 109 C294.99 109.33 295.98 109.66 297 110 C297 110.66 297 111.32 297 112 C297.66 112 298.32 112 299 112 C299 112.66 299 113.32 299 114 C299.66 114 300.32 114 301 114 C302.36176922 115.64351457 303.68962066 117.31522656 305 119 C305.76054688 119.75539063 306.52109375 120.51078125 307.3046875 121.2890625 C310.13962242 124.14043182 312.73885676 127.10294092 315.3125 130.1875 C315.76689453 130.72052734 316.22128906 131.25355469 316.68945312 131.80273438 C320 135.76045583 320 135.76045583 320 138 C320.66 138 321.32 138 322 138 C322.9765625 139.7578125 323.953125 141.515625 324.9296875 143.2734375 C326.00897274 145.1612614 326.00897274 145.1612614 328 147 C328 147.99 328 148.98 328 150 C328.66 150 329.32 150 330 150 C333.20208227 154.16376375 338 160.71388603 338 166 C338.66 166 339.32 166 340 166 C340.33 167.65 340.66 169.3 341 171 C341.66 171 342.32 171 343 171 C343 172.65 343 174.3 343 176 C345.86263798 175.6613397 346.90676286 175.09680873 348.9375 172.98828125 C349.618125 172.10527344 350.29875 171.22226562 351 170.3125 C351.78632812 169.31605469 352.57265625 168.31960938 353.3828125 167.29296875 C353.8046582 166.75720215 354.22650391 166.22143555 354.66113281 165.66943359 C356.99424193 162.76027967 359.43743484 159.9466592 361.875 157.125 C362.89999844 155.93381645 363.92473704 154.74240925 364.94921875 153.55078125 C365.45630371 152.96119629 365.96338867 152.37161133 366.48583984 151.76416016 C372.19291452 145.11480163 377.85560504 138.43124843 383.375 131.625 C387.54156423 126.50266476 391.86201281 121.52582622 396.20043945 116.54956055 C400.12489097 112.03784637 403.93426783 107.44674445 407.69921875 102.80078125 C411.37772387 98.32287264 415.17039656 93.94400705 418.94921875 89.55078125 C425.19427321 82.28968997 431.3963115 74.99446571 437.4375 67.5625 C441.8514623 62.14143044 446.39782805 56.84158026 450.95703125 51.54296875 C455.21351925 46.59441284 459.42167006 41.6052146 463.63232422 36.61767578 C465.02459417 34.97091021 466.42005473 33.32689933 467.81640625 31.68359375 C472.1051737 26.63343624 476.37239148 21.57019884 480.5625 16.4375 C481.284375 15.55707031 482.00625 14.67664063 482.75 13.76953125 C484.35073403 11.79918328 485.93125315 9.81954407 487.5 7.82421875 C493.92824269 -0.2607496 499.58825537 -5.95483588 510 -8 C520.51167798 -8.84771597 528.30294757 -5.04074772 536.26171875 1.69921875 C537.40621737 2.69235677 538.5480542 3.68856882 539.6875 4.6875 C543.91234074 8.35199344 548.15430464 11.97837724 552.5 15.5 C557.90076172 19.88712902 563.174677 24.41223412 568.44921875 28.94921875 C575.68816124 35.17522367 582.95865909 41.3608624 590.375 47.375 C594.91060136 51.08352111 599.41173334 54.82986755 603.875 58.625 C604.50583496 59.1514209 605.13666992 59.6778418 605.78662109 60.22021484 C612.60603812 66.06464987 617.24227162 72.09884306 618.25390625 81.3125 C618.86132138 93.85268335 612.32086059 101.55584821 604.38427734 110.43017578 C602.39309811 112.68825029 600.51101024 115.02881721 598.625 117.375 C594.45843577 122.49733524 590.13798719 127.47417378 585.79956055 132.45043945 C581.87510903 136.96215363 578.06573217 141.55325555 574.30078125 146.19921875 C570.62227613 150.67712736 566.82960344 155.05599295 563.05078125 159.44921875 C556.82477633 166.68816124 550.6391376 173.95865909 544.625 181.375 C540.45843577 186.49733524 536.13798719 191.47417378 531.79956055 196.45043945 C527.87510903 200.96215363 524.06573217 205.55325555 520.30078125 210.19921875 C516.62227613 214.67712736 512.82960344 219.05599295 509.05078125 223.44921875 C502.82477633 230.68816124 496.6391376 237.95865909 490.625 245.375 C486.45843577 250.49733524 482.13798719 255.47417378 477.79956055 260.45043945 C473.87510903 264.96215363 470.06573217 269.55325555 466.30078125 274.19921875 C462.62227613 278.67712736 458.82960344 283.05599295 455.05078125 287.44921875 C448.80572679 294.71031003 442.6036885 302.00553429 436.5625 309.4375 C432.1485377 314.85856956 427.60217195 320.15841974 423.04296875 325.45703125 C418.78648075 330.40558716 414.57832994 335.3947854 410.36767578 340.38232422 C408.97540583 342.02908979 407.57994527 343.67310067 406.18359375 345.31640625 C401.95146367 350.30026248 397.74262602 355.29559272 393.625 360.375 C389.45843577 365.49733524 385.13798719 370.47417378 380.79956055 375.45043945 C376.87510903 379.96215363 373.06573217 384.55325555 369.30078125 389.19921875 C365.62227613 393.67712736 361.82960344 398.05599295 358.05078125 402.44921875 C351.82477633 409.68816124 345.6391376 416.95865909 339.625 424.375 C335.45843577 429.49733524 331.13798719 434.47417378 326.79956055 439.45043945 C322.87510903 443.96215363 319.06573217 448.55325555 315.30078125 453.19921875 C311.62227613 457.67712736 307.82960344 462.05599295 304.05078125 466.44921875 C297.82477633 473.68816124 291.6391376 480.95865909 285.625 488.375 C281.45843577 493.49733524 277.13798719 498.47417378 272.79956055 503.45043945 C268.87510903 507.96215363 265.06573217 512.55325555 261.30078125 517.19921875 C257.62227613 521.67712736 253.82960344 526.05599295 250.05078125 530.44921875 C243.82477633 537.68816124 237.6391376 544.95865909 231.625 552.375 C227.45843577 557.49733524 223.13798719 562.47417378 218.79956055 567.45043945 C214.87510903 571.96215363 211.06573217 576.55325555 207.30078125 581.19921875 C203.62227613 585.67712736 199.82960344 590.05599295 196.05078125 594.44921875 C189.82477633 601.68816124 183.6391376 608.95865909 177.625 616.375 C173.45843577 621.49733524 169.13798719 626.47417378 164.79956055 631.45043945 C160.87510903 635.96215363 157.06573217 640.55325555 153.30078125 645.19921875 C149.62227613 649.67712736 145.82960344 654.05599295 142.05078125 658.44921875 C135.82477633 665.68816124 129.6391376 672.95865909 123.625 680.375 C119.45843577 685.49733524 115.13798719 690.47417378 110.79956055 695.45043945 C106.87510903 699.96215363 103.06573217 704.55325555 99.30078125 709.19921875 C95.62227613 713.67712736 91.82960344 718.05599295 88.05078125 722.44921875 C81.82477633 729.68816124 75.6391376 736.95865909 69.625 744.375 C65.45843577 749.49733524 61.13798719 754.47417378 56.79956055 759.45043945 C52.87510903 763.96215363 49.06573217 768.55325555 45.30078125 773.19921875 C41.62227613 777.67712736 37.82960344 782.05599295 34.05078125 786.44921875 C27.82477633 793.68816124 21.6391376 800.95865909 15.625 808.375 C12.00274764 812.8281633 8.27131682 817.17348717 4.5 821.5 C-1.51438044 828.40000297 -7.45747304 835.35688214 -13.01171875 842.63671875 C-17.50865451 847.98179956 -24.02100623 851.39072277 -31 852 C-46.28434807 851.98305505 -54.13055805 849.55208598 -65 839 C-66.5156039 837.60616342 -68.04245296 836.22537723 -69.57006836 834.84472656 C-74.22684891 830.63029995 -78.73964238 826.30176558 -83.14453125 821.82421875 C-85.01413647 819.98610162 -86.94850607 818.27014312 -88.9375 816.5625 C-91.92801716 813.99334729 -94.73116684 811.30682744 -97.5 808.5 C-101.50784567 804.45139658 -105.67336432 800.70160003 -110 797 C-111.19732165 795.96305544 -112.39386406 794.9252108 -113.58984375 793.88671875 C-116.16440504 791.65123361 -118.7392966 789.41614106 -121.31640625 787.18359375 C-121.92299072 786.65693115 -122.5295752 786.13026855 -123.15454102 785.58764648 C-124.40729565 784.50990295 -125.66855693 783.44198455 -126.93725586 782.38305664 C-127.55608643 781.86477295 -128.17491699 781.34648926 -128.8125 780.8125 C-129.36679687 780.35359375 -129.92109375 779.8946875 -130.4921875 779.421875 C-132.08177185 777.92288872 -133.23436184 776.38129708 -134.4375 774.5625 C-136.79327513 771.05569468 -139.60388752 768.58583866 -142.828125 765.8828125 C-145.16839919 763.85401365 -147.32895447 761.70847735 -149.5 759.5 C-152.2485599 756.71378859 -155.02859791 754.04691608 -158 751.5 C-160.97140209 748.95308392 -163.7514401 746.28621141 -166.5 743.5 C-169.22829407 740.73439592 -171.98516834 738.08712969 -174.9375 735.5625 C-179.03058303 732.0553056 -182.77224704 728.24274842 -186.55859375 724.41015625 C-189.27202727 721.73145468 -192.10777023 719.25391882 -195.00390625 716.77734375 C-198.06666727 714.05022777 -200.90223493 711.10595363 -203.78125 708.1875 C-205.79430632 706.20279658 -207.85446403 704.33903084 -210 702.5 C-212.97140209 699.95308392 -215.7514401 697.28621141 -218.5 694.5 C-221.22829407 691.73439592 -223.98516834 689.08712969 -226.9375 686.5625 C-231.03058303 683.0553056 -234.77224704 679.24274842 -238.55859375 675.41015625 C-241.27202727 672.73145468 -244.10777023 670.25391882 -247.00390625 667.77734375 C-250.06666727 665.05022777 -252.90223493 662.10595363 -255.78125 659.1875 C-257.79430632 657.20279658 -259.85446403 655.33903084 -262 653.5 C-265.79358733 650.24835372 -269.27392647 646.74286906 -272.78125 643.1875 C-274.79430632 641.20279658 -276.85446403 639.33903084 -279 637.5 C-281.97140209 634.95308392 -284.7514401 632.28621141 -287.5 629.5 C-290.22829407 626.73439592 -292.98516834 624.08712969 -295.9375 621.5625 C-300.03058303 618.0553056 -303.77224704 614.24274842 -307.55859375 610.41015625 C-310.27202727 607.73145468 -313.10777023 605.25391882 -316.00390625 602.77734375 C-319.06666727 600.05022777 -321.90223493 597.10595363 -324.78125 594.1875 C-326.79430632 592.20279658 -328.85446403 590.33903084 -331 588.5 C-333.97140209 585.95308392 -336.7514401 583.28621141 -339.5 580.5 C-342.22829407 577.73439592 -344.98516834 575.08712969 -347.9375 572.5625 C-352.03058303 569.0553056 -355.77224704 565.24274842 -359.55859375 561.41015625 C-362.27202727 558.73145468 -365.10777023 556.25391882 -368.00390625 553.77734375 C-371.06803813 551.04900715 -373.90481832 548.10332092 -376.78515625 545.18359375 C-378.77659461 543.22025329 -380.81302578 541.37920331 -382.9375 539.5625 C-399.93275491 524.81511448 -399.93275491 524.81511448 -401.875 512.5 C-402.48266787 503.52521303 -399.59227286 496.91318499 -394 490 C-392.05692666 487.91898028 -390.05547371 485.93076647 -388 483.9609375 C-386.0724167 482.07100231 -384.31461899 480.11475048 -382.5625 478.0625 C-379.99334729 475.07198284 -377.30682744 472.26883316 -374.5 469.5 C-371.71378859 466.7514401 -369.04691608 463.97140209 -366.5 461 C-363.95308392 458.02859791 -361.28621141 455.2485599 -358.5 452.5 C-355.73439592 449.77170593 -353.08712969 447.01483166 -350.5625 444.0625 C-347.05650315 439.97081459 -343.24538109 436.23033117 -339.4140625 432.4453125 C-337.31066401 430.31468555 -335.32469755 428.14519577 -333.375 425.875 C-332.25187407 424.58170347 -331.12685202 423.29005128 -330 422 C-329.38769531 421.29617188 -328.77539062 420.59234375 -328.14453125 419.8671875 C-321.59888984 412.78587484 -315.15633089 409.88003455 -305.5 409.4375 C-290.37306813 410.03903881 -280.80131815 422.06587661 -270.85546875 432.17578125 C-268.98586353 434.01389838 -267.05149393 435.72985688 -265.0625 437.4375 C-262.07198284 440.00665271 -259.26883316 442.69317256 -256.5 445.5 C-253.7514401 448.28621141 -250.97140209 450.95308392 -248 453.5 C-245.02859791 456.04691608 -242.2485599 458.71378859 -239.5 461.5 C-236.77170593 464.26560408 -234.01483166 466.91287031 -231.0625 469.4375 C-226.96941697 472.9446944 -223.22775296 476.75725158 -219.44140625 480.58984375 C-216.72797273 483.26854532 -213.89222977 485.74608118 -210.99609375 488.22265625 C-207.93333273 490.94977223 -205.09776507 493.89404637 -202.21875 496.8125 C-200.20569368 498.79720342 -198.14553597 500.66096916 -196 502.5 C-193.02859791 505.04691608 -190.2485599 507.71378859 -187.5 510.5 C-184.77170593 513.26560408 -182.01483166 515.91287031 -179.0625 518.4375 C-174.96941697 521.9446944 -171.22775296 525.75725158 -167.44140625 529.58984375 C-164.72797273 532.26854532 -161.89222977 534.74608118 -158.99609375 537.22265625 C-155.93333273 539.94977223 -153.09776507 542.89404637 -150.21875 545.8125 C-148.20569368 547.79720342 -146.14553597 549.66096916 -144 551.5 C-140.20641267 554.75164628 -136.72607353 558.25713094 -133.21875 561.8125 C-131.20569368 563.79720342 -129.14553597 565.66096916 -127 567.5 C-124.02859791 570.04691608 -121.2485599 572.71378859 -118.5 575.5 C-115.77170593 578.26560408 -113.01483166 580.91287031 -110.0625 583.4375 C-105.96941697 586.9446944 -102.22775296 590.75725158 -98.44140625 594.58984375 C-95.72797273 597.26854532 -92.89222977 599.74608118 -89.99609375 602.22265625 C-86.93333273 604.94977223 -84.09776507 607.89404637 -81.21875 610.8125 C-79.20569368 612.79720342 -77.14553597 614.66096916 -75 616.5 C-72.02859791 619.04691608 -69.2485599 621.71378859 -66.5 624.5 C-62.49972792 628.54838532 -58.33423855 632.31501985 -54 636 C-52.66662751 637.14578777 -51.33329198 638.29161854 -50 639.4375 C-49.01 640.283125 -48.02 641.12875 -47 642 C-46.48953125 641.36835937 -45.9790625 640.73671875 -45.453125 640.0859375 C-40.53940212 634.03961892 -35.52851076 628.09364757 -30.44213867 622.19262695 C-27.42951085 618.6899157 -24.47035677 615.15330295 -21.5625 611.5625 C-17.42003621 606.45772157 -13.11880901 601.50377318 -8.79931641 596.54931641 C-4.87498342 592.03765267 -1.06565963 587.44665494 2.69921875 582.80078125 C6.37772387 578.32287264 10.17039656 573.94400705 13.94921875 569.55078125 C20.17522367 562.31183876 26.3608624 555.04134091 32.375 547.625 C36.54156423 542.50266476 40.86201281 537.52582622 45.20043945 532.54956055 C49.12489097 528.03784637 52.93426783 523.44674445 56.69921875 518.80078125 C60.37772387 514.32287264 64.17039656 509.94400705 67.94921875 505.55078125 C74.17522367 498.31183876 80.3608624 491.04134091 86.375 483.625 C90.54156423 478.50266476 94.86201281 473.52582622 99.20043945 468.54956055 C103.12489097 464.03784637 106.93426783 459.44674445 110.69921875 454.80078125 C114.37772387 450.32287264 118.17039656 445.94400705 121.94921875 441.55078125 C128.17522367 434.31183876 134.3608624 427.04134091 140.375 419.625 C144.54156423 414.50266476 148.86201281 409.52582622 153.20043945 404.54956055 C157.12489097 400.03784637 160.93426783 395.44674445 164.69921875 390.80078125 C168.37772387 386.32287264 172.17039656 381.94400705 175.94921875 377.55078125 C182.17522367 370.31183876 188.3608624 363.04134091 194.375 355.625 C198.54156423 350.50266476 202.86201281 345.52582622 207.20043945 340.54956055 C211.12489097 336.03784637 214.93426783 331.44674445 218.69921875 326.80078125 C222.37772387 322.32287264 226.17039656 317.94400705 229.94921875 313.55078125 C237.75881597 304.4706045 245.46527821 295.31023049 253 286 C253.74765625 285.10925781 254.4953125 284.21851563 255.265625 283.30078125 C257.23222278 281.23514978 257.23222278 281.23514978 256.8125 279.1875 C256.544375 278.465625 256.27625 277.74375 256 277 C255.83602139 275.60618184 255.6918025 274.2099616 255.5625 272.8125 C255.376875 271.554375 255.19125 270.29625 255 269 C254.34 268.67 253.68 268.34 253 268 C252.65625 266.0390625 252.65625 266.0390625 252.5 263.625 C252.27058537 260.10348536 252.04707136 259.07060704 250 256 C249.5265813 254.41066579 249.05904359 252.81928574 248.625 251.21875 C246.8150802 244.79353473 244.86965642 238.41849711 241.75 232.5 C240 229 240 229 240 225 C239.34 225 238.68 225 238 225 C235.95830515 222.09451118 235 220.59857954 235 217 C234.34 217 233.68 217 233 217 C232.60039063 216.12730469 232.20078125 215.25460937 231.7890625 214.35546875 C229.95848303 210.92213303 227.90108649 208.26234367 225.375 205.3125 C221.1061008 200.31830239 221.1061008 200.31830239 220 197 C219.34 197 218.68 197 218 197 C216.7734375 195.71484375 216.7734375 195.71484375 215.375 193.9375 C204.55827589 180.92076421 187.91199086 168.86231242 172 163 C170.906875 162.525625 169.81375 162.05125 168.6875 161.5625 C162.39465451 158.87336646 156.82914149 156.93733315 150 156 C149.01 155.34 148.02 154.68 147 154 C137.17465721 151.1699824 126.61571643 151.69418731 116.4921875 151.73925781 C113.63780342 151.74995203 110.78405218 151.73932712 107.9296875 151.7265625 C90.74640696 150.95508533 90.74640696 150.95508533 75 156 C72.99841622 156.25826887 70.99596494 156.51321017 68.98828125 156.71875 C66.45836407 157.07661648 64.33723915 157.98930199 62 159 C60.33751833 159.35361501 58.67109241 159.68961468 57 160 C57.2165625 160.96679688 57.433125 161.93359375 57.65625 162.9296875 C60.92872363 177.9807384 61.14563583 192.60935091 53.25 206.4375 C52.20765854 207.98671574 51.12367189 209.50872316 50 211 C49.41347656 211.77859375 48.82695313 212.5571875 48.22265625 213.359375 C39.76447762 223.66832073 28.48722957 229.50797366 15.3984375 231.56640625 C0.55685624 233.02598205 -12.92733335 229.75035277 -24.9453125 220.80859375 C-35.07085011 212.21430229 -40.65410497 201.76012141 -44 189 C-44 188.34 -44 187.68 -44 187 C-45.32 187 -46.64 187 -48 187 C-48 187.66 -48 188.32 -48 189 C-51.3 189.33 -54.6 189.66 -58 190 C-58 190.66 -58 191.32 -58 192 C-60.05078125 192.22786458 -62.1015625 192.45572917 -64.15234375 192.68359375 C-66.01140229 192.81886614 -66.01140229 192.81886614 -67 194 C-69.0279979 194.2253331 -71.05674874 194.44767185 -73.08984375 194.62109375 C-75.2328948 194.86222227 -75.2328948 194.86222227 -77 197 C-78.91015625 197.37890625 -78.91015625 197.37890625 -81.0625 197.5625 C-84.76736617 197.55913448 -84.76736617 197.55913448 -86 199 C-88.31082773 199.56881913 -90.63644097 200.02763361 -92.96875 200.5 C-94.98233957 200.8098065 -94.98233957 200.8098065 -96 202 C-97.99541896 202.22528924 -99.99159864 202.44761095 -101.9921875 202.62109375 C-104.30715407 202.92253842 -104.30715407 202.92253842 -107 205 C-109.32914823 205.36141955 -111.66253478 205.69699525 -114 206 C-114.33 206.33 -114.66 206.66 -115 207 C-117.0279979 207.2253331 -119.05674874 207.44767185 -121.08984375 207.62109375 C-123.2328948 207.86222227 -123.2328948 207.86222227 -125 210 C-126.91015625 210.37890625 -126.91015625 210.37890625 -129.0625 210.5625 C-132.76736617 210.55913448 -132.76736617 210.55913448 -134 212 C-136.0279979 212.2253331 -138.05674874 212.44767185 -140.08984375 212.62109375 C-142.2328948 212.86222227 -142.2328948 212.86222227 -144 215 C-145.91015625 215.37890625 -145.91015625 215.37890625 -148.0625 215.5625 C-151.76736617 215.55913448 -151.76736617 215.55913448 -153 217 C-155.31082773 217.56881913 -157.63644097 218.02763361 -159.96875 218.5 C-161.98233957 218.8098065 -161.98233957 218.8098065 -163 220 C-165.00510217 220.23009369 -167.01023394 220.45993789 -169.015625 220.6875 C-171.32927886 221.05185494 -172.95339337 221.87766733 -175 223 C-178.77716316 224.2348418 -182.37168159 225.09232913 -186.3125 225.5 C-190.02857707 225.62478684 -190.02857707 225.62478684 -192 228 C-193.91015625 228.37890625 -193.91015625 228.37890625 -196.0625 228.5625 C-199.76736617 228.55913448 -199.76736617 228.55913448 -201 230 C-203.31082773 230.56881913 -205.63644097 231.02763361 -207.96875 231.5 C-209.98233957 231.8098065 -209.98233957 231.8098065 -211 233 C-213.0572917 233.31923492 -215.11613521 233.51161352 -217.1875 233.71875 C-219.0167533 233.81998043 -219.0167533 233.81998043 -220 235 C-222.31082773 235.56881913 -224.63644097 236.02763361 -226.96875 236.5 C-228.98233957 236.8098065 -228.98233957 236.8098065 -230 238 C-232.0572917 238.31923492 -234.11613521 238.51161352 -236.1875 238.71875 C-238.0167533 238.81998043 -238.0167533 238.81998043 -239 240 C-240.51469448 240.23192865 -242.03754562 240.41215238 -243.5625 240.5625 C-244.38878906 240.64628906 -245.21507812 240.73007812 -246.06640625 240.81640625 C-246.70449219 240.87699219 -247.34257813 240.93757812 -248 241 C-248 241.66 -248 242.32 -248 243 C-248.61488281 243.04898438 -249.22976563 243.09796875 -249.86328125 243.1484375 C-251.07564453 243.26058594 -251.07564453 243.26058594 -252.3125 243.375 C-253.11300781 243.44460938 -253.91351562 243.51421875 -254.73828125 243.5859375 C-257.27224441 243.89564426 -257.27224441 243.89564426 -260 246 C-262.33199388 246.07905064 -264.66832622 246.08798769 -267 246 C-267 246.66 -267 247.32 -267 248 C-268.98567708 248.1953125 -270.97135417 248.390625 -272.95703125 248.5859375 C-275.29988142 248.92665391 -275.29988142 248.92665391 -278 251 C-280.04296875 251.1953125 -280.04296875 251.1953125 -282.1875 251.125 C-283.445625 251.08375 -284.70375 251.0425 -286 251 C-286 251.66 -286 252.32 -286 253 C-287.27875 253.12375 -288.5575 253.2475 -289.875 253.375 C-293.34790936 253.69042399 -293.34790936 253.69042399 -296 256 C-297.91015625 256.37890625 -297.91015625 256.37890625 -300.0625 256.5625 C-303.76736617 256.55913448 -303.76736617 256.55913448 -305 258 C-307.0279979 258.2253331 -309.05674874 258.44767185 -311.08984375 258.62109375 C-313.2328948 258.86222227 -313.2328948 258.86222227 -315 261 C-316.93919314 261.28611046 -318.88059032 261.56895343 -320.83203125 261.75390625 C-323.2577271 262.02925551 -325.61238467 262.49580898 -328 263 C-327.79503906 263.64066406 -327.59007812 264.28132813 -327.37890625 264.94140625 C-322.56949098 280.38216053 -322.68853583 295.00207166 -330.0625 309.75 C-337.11691616 321.91738586 -347.27961838 330.00303439 -360.5625 334.375 C-375.34941437 338.20031046 -389.70430703 336.74469554 -403.1875 329.375 C-418.1441101 319.72871726 -423.66764373 307.12533855 -429 291 C-429.33 291.33 -429.66 291.66 -430 292 C-431.010625 292.103125 -432.02125 292.20625 -433.0625 292.3125 C-436.97406278 292.99547128 -439.38532664 294.10415881 -442.80859375 295.953125 C-446.051685 297.50240923 -449.43083979 298.37653679 -452.8984375 299.2890625 C-455.18508565 299.88960224 -455.18508565 299.88960224 -457 302 C-459.33333333 303 -461.66666667 304 -464 305 C-464.66 305.66 -465.32 306.32 -466 307 C-467.32 307 -468.64 307 -470 307 C-470 307.66 -470 308.32 -470 309 C-471.65 309.33 -473.3 309.66 -475 310 C-475 310.66 -475 311.32 -475 312 C-476.6171875 313.41015625 -476.6171875 313.41015625 -478.875 315.0625 C-492.62866145 325.00983059 -492.62866145 325.00983059 -503 338 C-503.66 338 -504.32 338 -505 338 C-505 338.66 -505 339.32 -505 340 C-505.66 340 -506.32 340 -507 340 C-507.226875 340.680625 -507.45375 341.36125 -507.6875 342.0625 C-509.05641901 345.12627111 -510.72842534 347.49709951 -512.70703125 350.18359375 C-518.31122487 358.05655457 -522.15738109 367.18270433 -526 376 C-526.53625 377.19625 -527.0725 378.3925 -527.625 379.625 C-530.16773466 385.86625779 -531.44364925 392.12097976 -532.53515625 398.7421875 C-533 401 -533 401 -534 402 C-534.31438917 404.35734994 -534.57143843 406.69568744 -534.7890625 409.0625 C-534.89037979 410.12223022 -534.89037979 410.12223022 -534.9937439 411.20336914 C-535.13544635 412.69949589 -535.2748357 414.19584322 -535.41210938 415.69238281 C-535.62416913 417.99099378 -535.84676481 420.28841872 -536.0703125 422.5859375 C-536.20636831 424.03639852 -536.3418059 425.4869177 -536.4765625 426.9375 C-536.54420807 427.6291626 -536.61185364 428.3208252 -536.68154907 429.03344727 C-536.8290872 430.68579071 -536.92029546 432.34299863 -537 434 C-536.67 434.33 -536.34 434.66 -536 435 C-535.78489012 436.61929939 -535.62916566 438.24659004 -535.5 439.875 C-535.4175 440.85984375 -535.335 441.8446875 -535.25 442.859375 C-535.08333333 444.953125 -534.91666667 447.046875 -534.75 449.140625 C-534.6675 450.12546875 -534.585 451.1103125 -534.5 452.125 C-534.39171875 453.49011719 -534.39171875 453.49011719 -534.28125 454.8828125 C-534.22066653 456.98194482 -534.22066653 456.98194482 -533 458 C-532.7180604 460.28684338 -532.55222995 462.57363273 -532.37890625 464.87109375 C-532.17223364 467.20927403 -532.17223364 467.20927403 -530 469 C-529.7378831 470.96587677 -529.48142428 472.93310353 -529.28125 474.90625 C-528.89921786 477.75026701 -527.9780964 480.3102349 -527 483 C-526.814375 483.763125 -526.62875 484.52625 -526.4375 485.3125 C-526.14629643 487.02271028 -526.14629643 487.02271028 -525 488 C-524.77471076 489.99541896 -524.55238905 491.99159864 -524.37890625 493.9921875 C-524.07746158 496.30715407 -524.07746158 496.30715407 -522 499 C-521.63858045 501.32914823 -521.30300475 503.66253478 -521 506 C-520.67 506.33 -520.34 506.66 -520 507 C-519.76712992 508.68183948 -519.58735834 510.3712416 -519.4375 512.0625 C-519.35371094 512.98160156 -519.26992188 513.90070312 -519.18359375 514.84765625 C-519.12300781 515.55792969 -519.06242188 516.26820313 -519 517 C-518.34 517 -517.68 517 -517 517 C-516.77213542 519.05078125 -516.54427083 521.1015625 -516.31640625 523.15234375 C-516.18113386 525.01140229 -516.18113386 525.01140229 -515 526 C-514.7746669 528.0279979 -514.55232815 530.05674874 -514.37890625 532.08984375 C-514.13777773 534.2328948 -514.13777773 534.2328948 -512 536 C-511.62109375 537.91015625 -511.62109375 537.91015625 -511.4375 540.0625 C-511.44086552 543.76736617 -511.44086552 543.76736617 -510 545 C-509.43118087 547.31082773 -508.97236639 549.63644097 -508.5 551.96875 C-508.1901935 553.98233957 -508.1901935 553.98233957 -507 555 C-506.85884839 557.67058851 -506.95752893 560.32432238 -507 563 C-506.34 563 -505.68 563 -505 563 C-503.8422494 566.47325181 -503.93133348 569.36067448 -504 573 C-503.34 573 -502.68 573 -502 573 C-501.80083984 574.06541016 -501.80083984 574.06541016 -501.59765625 575.15234375 C-501.42105469 576.07144531 -501.24445313 576.99054687 -501.0625 577.9375 C-500.88847656 578.85402344 -500.71445312 579.77054688 -500.53515625 580.71484375 C-500.22285012 582.95289844 -500.22285012 582.95289844 -499 584 C-497.28750566 589.71248111 -496.78413155 595.06361776 -497 601 C-496.34 601 -495.68 601 -495 601 C-493.39274365 604.21451269 -493.94251815 607.43612536 -494 611 C-493.34 611 -492.68 611 -492 611 C-491.80083984 612.06541016 -491.80083984 612.06541016 -491.59765625 613.15234375 C-491.42105469 614.07144531 -491.24445313 614.99054687 -491.0625 615.9375 C-490.88847656 616.85402344 -490.71445312 617.77054688 -490.53515625 618.71484375 C-490.22285012 620.95289844 -490.22285012 620.95289844 -489 622 C-488.66666667 624.33333333 -488.33333333 626.66666667 -488 629 C-487.67 629.33 -487.34 629.66 -487 630 C-486.76712992 631.68183948 -486.58735834 633.3712416 -486.4375 635.0625 C-486.35371094 635.98160156 -486.26992188 636.90070312 -486.18359375 637.84765625 C-486.12300781 638.55792969 -486.06242188 639.26820313 -486 640 C-485.34 640 -484.68 640 -484 640 C-483.89042969 640.61746094 -483.78085937 641.23492188 -483.66796875 641.87109375 C-482.84876505 646.24684032 -481.93180951 650.38641382 -480.375 654.5625 C-478.73840168 659.1680028 -478.76853068 663.13914436 -479 668 C-478.34 668 -477.68 668 -477 668 C-475.39274365 671.21451269 -475.94251815 674.43612536 -476 678 C-475.34 678 -474.68 678 -474 678 C-473.67 681.3 -473.34 684.6 -473 688 C-472.34 688 -471.68 688 -471 688 C-470.77213542 690.05078125 -470.54427083 692.1015625 -470.31640625 694.15234375 C-470.18113386 696.01140229 -470.18113386 696.01140229 -469 697 C-468.7746669 699.0279979 -468.55232815 701.05674874 -468.37890625 703.08984375 C-468.13777773 705.2328948 -468.13777773 705.2328948 -466 707 C-465.7378831 708.96587677 -465.48142428 710.93310353 -465.28125 712.90625 C-464.89921786 715.75026701 -463.9780964 718.3102349 -463 721 C-462.7215625 722.1446875 -462.7215625 722.1446875 -462.4375 723.3125 C-462.14629643 725.02271028 -462.14629643 725.02271028 -461 726 C-460.77471076 727.99541896 -460.55238905 729.99159864 -460.37890625 731.9921875 C-460.07746158 734.30715407 -460.07746158 734.30715407 -458 737 C-457.63858045 739.32914823 -457.30300475 741.66253478 -457 744 C-456.67 744.33 -456.34 744.66 -456 745 C-455.43118087 747.31082773 -454.97236639 749.63644097 -454.5 751.96875 C-454.1901935 753.98233957 -454.1901935 753.98233957 -453 755 C-452.68076508 757.0572917 -452.48838648 759.11613521 -452.28125 761.1875 C-452.18001957 763.0167533 -452.18001957 763.0167533 -451 764 C-450.72046781 766.0587768 -450.55265649 768.11728432 -450.37890625 770.1875 C-450.25386719 770.785625 -450.12882813 771.38375 -450 772 C-449.34 772.33 -448.68 772.66 -448 773 C-447.62109375 775.03125 -447.62109375 775.03125 -447.4375 777.5 C-447.4207737 780.54981525 -447.4207737 780.54981525 -446 783 C-445.85884839 785.67058851 -445.95752893 788.32432238 -446 791 C-445.34 791 -444.68 791 -444 791 C-442.39274365 794.21451269 -442.94251815 797.43612536 -443 801 C-442.34 801 -441.68 801 -441 801 C-439.8422494 804.47325181 -439.93133348 807.36067448 -440 811 C-439.34 811 -438.68 811 -438 811 C-437.80083984 812.06541016 -437.80083984 812.06541016 -437.59765625 813.15234375 C-437.42105469 814.07144531 -437.24445313 814.99054687 -437.0625 815.9375 C-436.88847656 816.85402344 -436.71445312 817.77054688 -436.53515625 818.71484375 C-436.22285012 820.95289844 -436.22285012 820.95289844 -435 822 C-433.28750566 827.71248111 -432.78413155 833.06361776 -433 839 C-432.01 839.33 -431.02 839.66 -430 840 C-430 842.97 -430 845.94 -430 849 C-429.34 849 -428.68 849 -428 849 C-427.80083984 850.06541016 -427.80083984 850.06541016 -427.59765625 851.15234375 C-427.42105469 852.07144531 -427.24445313 852.99054687 -427.0625 853.9375 C-426.88847656 854.85402344 -426.71445312 855.77054688 -426.53515625 856.71484375 C-426.22285012 858.95289844 -426.22285012 858.95289844 -425 860 C-424.66666667 862.33333333 -424.33333333 864.66666667 -424 867 C-423.67 867.33 -423.34 867.66 -423 868 C-422.76712992 869.68183948 -422.58735834 871.3712416 -422.4375 873.0625 C-422.35371094 873.98160156 -422.26992188 874.90070312 -422.18359375 875.84765625 C-422.12300781 876.55792969 -422.06242188 877.26820313 -422 878 C-421.34 878 -420.68 878 -420 878 C-419.80083984 879.06541016 -419.80083984 879.06541016 -419.59765625 880.15234375 C-419.42105469 881.07144531 -419.24445313 881.99054687 -419.0625 882.9375 C-418.88847656 883.85402344 -418.71445312 884.77054688 -418.53515625 885.71484375 C-418.22285012 887.95289844 -418.22285012 887.95289844 -417 889 C-416.66666667 891.33333333 -416.33333333 893.66666667 -416 896 C-415.67 896.33 -415.34 896.66 -415 897 C-414.92820036 898.51928038 -414.91607993 900.04167482 -414.9375 901.5625 C-414.94652344 902.38878906 -414.95554687 903.21507812 -414.96484375 904.06640625 C-414.98224609 905.02353516 -414.98224609 905.02353516 -415 906 C-414.34 906 -413.68 906 -413 906 C-411.39274365 909.21451269 -411.94251815 912.43612536 -412 916 C-411.34 916 -410.68 916 -410 916 C-409.8046875 918.01822917 -409.609375 920.03645833 -409.4140625 922.0546875 C-409.13625251 924.22668245 -409.13625251 924.22668245 -407 926 C-406.62109375 927.91015625 -406.62109375 927.91015625 -406.4375 930.0625 C-406.44086552 933.76736617 -406.44086552 933.76736617 -405 935 C-404.7746669 937.0279979 -404.55232815 939.05674874 -404.37890625 941.08984375 C-404.13777773 943.2328948 -404.13777773 943.2328948 -402 945 C-401.73686201 946.94064268 -401.48076701 948.88303535 -401.2890625 950.83203125 C-401.0065642 952.95076852 -400.51517737 954.83923596 -399.875 956.875 C-399 960 -399 960 -400 962 C-399.34 962 -398.68 962 -398 962 C-397.87882813 962.68707031 -397.75765625 963.37414063 -397.6328125 964.08203125 C-397.46523438 964.98308594 -397.29765625 965.88414062 -397.125 966.8125 C-396.96257812 967.70582031 -396.80015625 968.59914063 -396.6328125 969.51953125 C-396.08811551 972.22727846 -396.08811551 972.22727846 -394 975 C-393.40851564 976.64964445 -392.87030293 978.31897187 -392.375 980 C-391.98441406 981.299375 -391.98441406 981.299375 -391.5859375 982.625 C-391 985 -391 985 -391 988 C-390.34 988 -389.68 988 -389 988 C-388.773125 988.94875 -388.54625 989.8975 -388.3125 990.875 C-387.1207872 995.13733044 -385.11108115 998.87995301 -383.0234375 1002.765625 C-382 1005 -382 1005 -382 1008 C-381.34 1008 -380.68 1008 -380 1008 C-378.6328125 1009.72265625 -378.6328125 1009.72265625 -377.125 1012.0625 C-376.63257813 1012.81660156 -376.14015625 1013.57070312 -375.6328125 1014.34765625 C-374.42648645 1016.30721459 -373.29965467 1018.31621919 -372.21875 1020.34765625 C-369.83019545 1024.55176213 -366.70619414 1027.89824638 -363.375 1031.375 C-362.75109375 1032.03201904 -362.1271875 1032.68903809 -361.484375 1033.3659668 C-350.12798456 1045.22036768 -336.59741736 1057.89724116 -320.76953125 1063.25390625 C-319 1064 -319 1064 -317 1066 C-314.42938689 1066.64767793 -314.42938689 1066.64767793 -312 1067 C-312 1067.66 -312 1068.32 -312 1069 C-310.081875 1069.4021875 -310.081875 1069.4021875 -308.125 1069.8125 C-304.69668771 1070.57016776 -301.35444428 1071.46422332 -298 1072.5 C-289.46683856 1075.08739045 -281.45839441 1076.30066321 -272.55078125 1076.75390625 C-269.30218344 1076.97905659 -266.20679874 1077.45825198 -263 1078 C-250.45665334 1078.82851598 -227.62530779 1079.08353853 -217 1072 C-214.97496278 1071.74285242 -212.94910027 1071.48863937 -210.91796875 1071.28515625 C-208.89739141 1071.08629703 -208.89739141 1071.08629703 -206.875 1069.9375 C-204.23229983 1068.61614992 -201.90616409 1068.86790163 -199 1069 C-199 1068.34 -199 1067.68 -199 1067 C-197.01432292 1066.8046875 -195.02864583 1066.609375 -193.04296875 1066.4140625 C-190.70011858 1066.07334609 -190.70011858 1066.07334609 -188 1064 C-185.95703125 1063.8046875 -185.95703125 1063.8046875 -183.8125 1063.875 C-182.554375 1063.91625 -181.29625 1063.9575 -180 1064 C-180 1063.34 -180 1062.68 -180 1062 C-178.93458984 1061.80083984 -178.93458984 1061.80083984 -177.84765625 1061.59765625 C-176.92855469 1061.42105469 -176.00945312 1061.24445313 -175.0625 1061.0625 C-174.14597656 1060.88847656 -173.22945312 1060.71445313 -172.28515625 1060.53515625 C-170.04710156 1060.22285012 -170.04710156 1060.22285012 -169 1059 C-166.66666667 1058.66666667 -164.33333333 1058.33333333 -162 1058 C-161.67 1057.67 -161.34 1057.34 -161 1057 C-158.9720021 1056.7746669 -156.94325126 1056.55232815 -154.91015625 1056.37890625 C-152.7671052 1056.13777773 -152.7671052 1056.13777773 -151 1054 C-149.08984375 1053.62109375 -149.08984375 1053.62109375 -146.9375 1053.4375 C-143.23263383 1053.44086552 -143.23263383 1053.44086552 -142 1052 C-139.9720021 1051.7746669 -137.94325126 1051.55232815 -135.91015625 1051.37890625 C-133.7671052 1051.13777773 -133.7671052 1051.13777773 -132 1049 C-129.98544045 1048.74005683 -127.9699265 1048.48413072 -125.94921875 1048.27734375 C-123.63730352 1047.94839389 -122.03971164 1047.11855155 -120 1046 C-116.24601598 1044.77273599 -112.66661214 1043.91038032 -108.75 1043.5 C-104.92897973 1043.2703352 -104.92897973 1043.2703352 -102 1041 C-99.67085177 1040.63858045 -97.33746522 1040.30300475 -95 1040 C-94.67 1039.67 -94.34 1039.34 -94 1039 C-91.9720021 1038.7746669 -89.94325126 1038.55232815 -87.91015625 1038.37890625 C-85.7671052 1038.13777773 -85.7671052 1038.13777773 -84 1036 C-82.08984375 1035.62109375 -82.08984375 1035.62109375 -79.9375 1035.4375 C-76.23263383 1035.44086552 -76.23263383 1035.44086552 -75 1034 C-72.9720021 1033.7746669 -70.94325126 1033.55232815 -68.91015625 1033.37890625 C-66.7671052 1033.13777773 -66.7671052 1033.13777773 -65 1031 C-63.08984375 1030.62109375 -63.08984375 1030.62109375 -60.9375 1030.4375 C-57.23263383 1030.44086552 -57.23263383 1030.44086552 -56 1029 C-53.68917227 1028.43118087 -51.36355903 1027.97236639 -49.03125 1027.5 C-47.01766043 1027.1901935 -47.01766043 1027.1901935 -46 1026 C-44.00458104 1025.77471076 -42.00840136 1025.55238905 -40.0078125 1025.37890625 C-37.69284593 1025.07746158 -37.69284593 1025.07746158 -35 1023 C-32.67085177 1022.63858045 -30.33746522 1022.30300475 -28 1022 C-27.67 1021.67 -27.34 1021.34 -27 1021 C-24.68917227 1020.43118087 -22.36355903 1019.97236639 -20.03125 1019.5 C-18.01766043 1019.1901935 -18.01766043 1019.1901935 -17 1018 C-14.9427083 1017.68076508 -12.88386479 1017.48838648 -10.8125 1017.28125 C-8.9832467 1017.18001957 -8.9832467 1017.18001957 -8 1016 C-5.68917227 1015.43118087 -3.36355903 1014.97236639 -1.03125 1014.5 C0.98233957 1014.1901935 0.98233957 1014.1901935 2 1013 C4.0572917 1012.68076508 6.11613521 1012.48838648 8.1875 1012.28125 C10.0167533 1012.18001957 10.0167533 1012.18001957 11 1011 C12.51469448 1010.76807135 14.03754562 1010.58784762 15.5625 1010.4375 C16.38878906 1010.35371094 17.21507812 1010.26992187 18.06640625 1010.18359375 C18.70449219 1010.12300781 19.34257813 1010.06242187 20 1010 C20 1009.34 20 1008.68 20 1008 C20.60328125 1007.95101562 21.2065625 1007.90203125 21.828125 1007.8515625 C22.62734375 1007.77679687 23.4265625 1007.70203125 24.25 1007.625 C25.03890625 1007.55539062 25.8278125 1007.48578125 26.640625 1007.4140625 C29.09733198 1006.98291856 30.79254956 1006.12181908 33 1005 C36.25 1004.875 36.25 1004.875 39 1005 C39 1004.34 39 1003.68 39 1003 C40.98567708 1002.8046875 42.97135417 1002.609375 44.95703125 1002.4140625 C47.29988142 1002.07334609 47.29988142 1002.07334609 50 1000 C52.32914823 999.63858045 54.66253478 999.30300475 57 999 C57.33 998.67 57.66 998.34 58 998 C59.68183948 997.76712992 61.3712416 997.58735834 63.0625 997.4375 C63.98160156 997.35371094 64.90070312 997.26992187 65.84765625 997.18359375 C66.55792969 997.12300781 67.26820313 997.06242187 68 997 C68 996.34 68 995.68 68 995 C70.05078125 994.77213542 72.1015625 994.54427083 74.15234375 994.31640625 C76.01140229 994.18113386 76.01140229 994.18113386 77 993 C79.0279979 992.7746669 81.05674874 992.55232815 83.08984375 992.37890625 C85.2328948 992.13777773 85.2328948 992.13777773 87 990 C88.91015625 989.62109375 88.91015625 989.62109375 91.0625 989.4375 C94.76736617 989.44086552 94.76736617 989.44086552 96 988 C98.31082773 987.43118087 100.63644097 986.97236639 102.96875 986.5 C104.98233957 986.1901935 104.98233957 986.1901935 106 985 C107.99541896 984.77471076 109.99159864 984.55238905 111.9921875 984.37890625 C114.30715407 984.07746158 114.30715407 984.07746158 117 982 C119.32914823 981.63858045 121.66253478 981.30300475 124 981 C124.33 980.67 124.66 980.34 125 980 C127.0279979 979.7746669 129.05674874 979.55232815 131.08984375 979.37890625 C133.2328948 979.13777773 133.2328948 979.13777773 135 977 C136.91015625 976.62109375 136.91015625 976.62109375 139.0625 976.4375 C142.76736617 976.44086552 142.76736617 976.44086552 144 975 C146.0279979 974.7746669 148.05674874 974.55232815 150.08984375 974.37890625 C152.2328948 974.13777773 152.2328948 974.13777773 154 972 C155.91015625 971.62109375 155.91015625 971.62109375 158.0625 971.4375 C161.76736617 971.44086552 161.76736617 971.44086552 163 970 C165.31082773 969.43118087 167.63644097 968.97236639 169.96875 968.5 C171.98233957 968.1901935 171.98233957 968.1901935 173 967 C175.0572917 966.68076508 177.11613521 966.48838648 179.1875 966.28125 C181.0167533 966.18001957 181.0167533 966.18001957 182 965 C184.31082773 964.43118087 186.63644097 963.97236639 188.96875 963.5 C190.98233957 963.1901935 190.98233957 963.1901935 192 962 C193.99541896 961.77471076 195.99159864 961.55238905 197.9921875 961.37890625 C200.30715407 961.07746158 200.30715407 961.07746158 203 959 C205.32914823 958.63858045 207.66253478 958.30300475 210 958 C210.33 957.67 210.66 957.34 211 957 C213.31082773 956.43118087 215.63644097 955.97236639 217.96875 955.5 C219.98233957 955.1901935 219.98233957 955.1901935 221 954 C223.0572917 953.68076508 225.11613521 953.48838648 227.1875 953.28125 C229.0167533 953.18001957 229.0167533 953.18001957 230 952 C232.31082773 951.43118087 234.63644097 950.97236639 236.96875 950.5 C238.98233957 950.1901935 238.98233957 950.1901935 240 949 C242.64384129 948.4349265 245.27822922 947.91786957 247.9375 947.4375 C249.0502832 947.22963867 249.0502832 947.22963867 250.18554688 947.01757812 C255.71455511 946 255.71455511 946 258 946 C258 945.34 258 944.68 258 944 C258.60328125 943.95101562 259.2065625 943.90203125 259.828125 943.8515625 C260.62734375 943.77679687 261.4265625 943.70203125 262.25 943.625 C263.03890625 943.55539062 263.8278125 943.48578125 264.640625 943.4140625 C267.09733198 942.98291856 268.79254956 942.12181908 271 941 C274.25 940.875 274.25 940.875 277 941 C277 940.34 277 939.68 277 939 C278.98567708 938.8046875 280.97135417 938.609375 282.95703125 938.4140625 C285.29988142 938.07334609 285.29988142 938.07334609 288 936 C290.33163378 935.32741333 292.6652039 934.66152556 295 934 C296.6536525 933.26857678 298.30718798 932.53685047 299.95703125 931.796875 C304.18031819 930.14955084 308.61272106 929.11863713 313 928 C313 927.34 313 926.68 313 926 C313.804375 925.79375 314.60875 925.5875 315.4375 925.375 C319.43218793 923.83319062 322.49426406 921.73643804 325.94921875 919.2421875 C328 918 328 918 331 918 C331 917.34 331 916.68 331 916 C331.99 916 332.98 916 334 916 C334.33 915.01 334.66 914.02 335 913 C335.99 913 336.98 913 338 913 C338 912.34 338 911.68 338 911 C339.328125 909.6953125 339.328125 909.6953125 341.25 908.125 C345.15567138 904.80833472 348.81521217 901.30653623 352.4375 897.6875 C352.96956055 897.15979004 353.50162109 896.63208008 354.04980469 896.08837891 C356.8749138 893.30890939 356.8749138 893.30890939 359 890 C359.66 890 360.32 890 361 890 C361.268125 889.278125 361.53625 888.55625 361.8125 887.8125 C363.40445908 884.04207059 365.04282918 880.92725923 368 878.0625 C370.41678 875.57019563 371.54562953 873.15113602 373 870 C373.68450108 868.64431498 374.37213479 867.29020821 375.0625 865.9375 C376.52978883 863.00854413 377.84860556 860.07038518 379 857 C379.66 857 380.32 857 381 857 C381 855.35 381 853.7 381 852 C381.66 852 382.32 852 383 852 C383.99 847.05 384.98 842.1 386 837 C386.66 837 387.32 837 388 837 C388.33 832.71 388.66 828.42 389 824 C389.66 824 390.32 824 391 824 C391.51067353 790.65314275 391.51067353 790.65314275 385.56283569 757.96755981 C381.7484662 744.63329509 378.1138245 731.24407612 374.49584961 717.85546875 C373.95181248 715.84954751 373.40388761 713.84467708 372.85229492 711.84082031 C372.04169366 708.89378568 371.24417609 705.94347509 370.44921875 702.9921875 C370.07901863 701.66234329 370.07901863 701.66234329 369.70133972 700.30563354 C367.53362262 692.15912406 366.91019362 685.74141923 371 678 C376.5070778 668.89214056 389.27077517 667.30444404 398.859375 664.671875 C400.29514293 664.27416447 401.73087218 663.87631429 403.16656494 663.47833252 C406.16399657 662.64960701 409.16302239 661.82695561 412.16308594 661.0078125 C415.97426106 659.96602094 419.7790061 658.90253927 423.58260727 657.83347702 C426.54296854 657.00533844 429.50737003 656.19245717 432.47303009 655.38352203 C433.87608829 654.99823784 435.27770213 654.60764692 436.67766571 654.21126556 C458.25143277 648.12188464 458.25143277 648.12188464 467 652.625 C473.47069761 657.74763561 475.82693829 662.25840371 477.7890625 670.08203125 C478.01902924 670.93681564 478.24899597 671.79160004 478.4859314 672.67228699 C479.21392057 675.38197973 479.921451 678.09636715 480.625 680.8125 C481.33680287 683.54612079 482.05320533 686.27806236 482.78549194 689.00627136 C483.23966971 690.69908387 483.68196616 692.39513721 484.11123657 694.09443665 C484.64579704 696.09085877 485.3116737 698.05124062 486 700 C486.99 700.33 487.98 700.66 489 701 C489 702.65 489 704.3 489 706 C489.66 706 490.32 706 491 706 C492.60725635 709.21451269 492.05748185 712.43612536 492 716 C492.66 716 493.32 716 494 716 C494.1953125 717.98567708 494.390625 719.97135417 494.5859375 721.95703125 C494.92665391 724.29988142 494.92665391 724.29988142 497 727 C497.36141955 729.32914823 497.69699525 731.66253478 498 734 C498.33 734.33 498.66 734.66 499 735 C499.2253331 737.0279979 499.44767185 739.05674874 499.62109375 741.08984375 C499.86222227 743.2328948 499.86222227 743.2328948 502 745 C502.55869892 747.69404036 503.03073973 750.34534138 503.4375 753.0625 C504.10876825 757.53894565 504.82050862 761.66358039 506.53662109 765.86669922 C508.72589164 772.33592304 508.37307283 778.90944284 508.29296875 785.66015625 C508.28736211 787.05976401 508.28309707 788.45937773 508.28010559 789.85899353 C508.26874061 793.51362838 508.23934742 797.16789622 508.20599365 800.8223877 C508.17511085 804.56318195 508.16156165 808.30403644 508.14648438 812.04492188 C508.11446796 819.36344719 508.06337521 826.68167185 508 834 C507.34 834 506.68 834 506 834 C505.90912109 834.94359375 505.90912109 834.94359375 505.81640625 835.90625 C505.29004493 841.28323337 504.69453543 846.64215527 504 852 C503.34 852 502.68 852 502 852 C502 855.3 502 858.6 502 862 C501.34 862 500.68 862 500 862 C499.97421875 862.61746094 499.9484375 863.23492188 499.921875 863.87109375 C499.54171472 869.54757799 498.42260843 873.79073936 495.921875 878.8828125 C494.59735475 881.92471916 494.28009828 884.70884523 494 888 C493.34 888 492.68 888 492 888 C492.12375 888.99 492.12375 888.99 492.25 890 C491.95587405 893.52951138 490.80700975 895.64708537 489.15625 898.73046875 C487.13776528 902.69242693 485.59714307 906.85422438 484 911 C483.34 911 482.68 911 482 911 C481.62875 912.2375 481.2575 913.475 480.875 914.75 C478.87666889 920.80291599 475.94698158 926.36354009 473 932 C472.34 932 471.68 932 471 932 C470.5359375 933.175625 470.5359375 933.175625 470.0625 934.375 C469 937 469 937 468 939 C467.34 939 466.68 939 466 939 C465.87625 939.5775 465.7525 940.155 465.625 940.75 C464.99351176 943.02335767 464.11141809 944.9253529 463 947 C462.34 947 461.68 947 461 947 C460.62875 948.0828125 460.62875 948.0828125 460.25 949.1875 C458.87730408 952.27606582 457.27646704 954.51011418 455 957 C454.34 957 453.68 957 453 957 C452.690625 957.99 452.690625 957.99 452.375 959 C449.99001584 964.2036018 446.32192798 969.2080087 442 973 C441.34 973 440.68 973 440 973 C440 973.66 440 974.32 440 975 C438.625 976.625 438.625 976.625 437 978 C436.34 978 435.68 978 435 978 C435 978.66 435 979.32 435 980 C433.625 981.625 433.625 981.625 432 983 C431.34 983 430.68 983 430 983 C429.67 983.99 429.34 984.98 429 986 C428.34 986 427.68 986 427 986 C427 986.66 427 987.32 427 988 C425.625 989.625 425.625 989.625 424 991 C423.34 991 422.68 991 422 991 C422 991.66 422 992.32 422 993 C420.5390625 994.5078125 420.5390625 994.5078125 418.625 996.125 C417.68527344 996.93324219 417.68527344 996.93324219 416.7265625 997.7578125 C415 999 415 999 413 999 C413 999.66 413 1000.32 413 1001 C410.69921875 1002.9453125 410.69921875 1002.9453125 407.6875 1005.125 C406.70136719 1005.84945312 405.71523437 1006.57390625 404.69921875 1007.3203125 C402 1009 402 1009 399 1009 C399 1009.66 399 1010.32 399 1011 C398.01 1011 397.02 1011 396 1011 C395.67 1011.99 395.34 1012.98 395 1014 C390.93011274 1017.23929802 386.85921409 1019.6640176 382.1796875 1021.89453125 C378.79839957 1023.60941384 375.6098833 1025.6277626 372.39453125 1027.6328125 C369.98715056 1029.00733655 367.58063645 1029.99855899 365 1031 C364.175 1031.495 363.35 1031.99 362.5 1032.5 C360.04420574 1033.97347656 357.6628945 1034.96082166 355 1036 C354.05125 1036.495 353.1025 1036.99 352.125 1037.5 C348.80330111 1039.09441547 345.53752351 1039.989279 342 1041 C341.05125 1041.474375 340.1025 1041.94875 339.125 1042.4375 C333.81583381 1045.09208309 328.48261973 1046.95007382 322.5625 1047.5625 C318.95510929 1047.63446135 318.95510929 1047.63446135 317 1050 C314.31160615 1050.26991906 311.70858064 1050.08737357 309 1050 C309 1050.66 309 1051.32 309 1052 C307.01432292 1052.1953125 305.02864583 1052.390625 303.04296875 1052.5859375 C300.70011858 1052.92665391 300.70011858 1052.92665391 298 1055 C295.95703125 1055.1953125 295.95703125 1055.1953125 293.8125 1055.125 C292.554375 1055.08375 291.29625 1055.0425 290 1055 C290 1055.66 290 1056.32 290 1057 C288.081875 1057.185625 288.081875 1057.185625 286.125 1057.375 C282.65209064 1057.69042399 282.65209064 1057.69042399 280 1060 C278.08984375 1060.37890625 278.08984375 1060.37890625 275.9375 1060.5625 C272.23263383 1060.55913448 272.23263383 1060.55913448 271 1062 C268.9720021 1062.2253331 266.94325126 1062.44767185 264.91015625 1062.62109375 C262.7671052 1062.86222227 262.7671052 1062.86222227 261 1065 C258.98544045 1065.25994317 256.9699265 1065.51586928 254.94921875 1065.72265625 C252.63730352 1066.05160611 251.03971164 1066.88144845 249 1068 C245.24601598 1069.22726401 241.66661214 1070.08961968 237.75 1070.5 C233.92897973 1070.7296648 233.92897973 1070.7296648 231 1073 C228.67085177 1073.36141955 226.33746522 1073.69699525 224 1074 C223.67 1074.33 223.34 1074.66 223 1075 C220.9720021 1075.2253331 218.94325126 1075.44767185 216.91015625 1075.62109375 C214.7671052 1075.86222227 214.7671052 1075.86222227 213 1078 C211.08984375 1078.37890625 211.08984375 1078.37890625 208.9375 1078.5625 C205.23263383 1078.55913448 205.23263383 1078.55913448 204 1080 C201.68917227 1080.56881913 199.36355903 1081.02763361 197.03125 1081.5 C195.01766043 1081.8098065 195.01766043 1081.8098065 194 1083 C191.9427083 1083.31923492 189.88386479 1083.51161352 187.8125 1083.71875 C185.9832467 1083.81998043 185.9832467 1083.81998043 185 1085 C182.68917227 1085.56881913 180.36355903 1086.02763361 178.03125 1086.5 C176.01766043 1086.8098065 176.01766043 1086.8098065 175 1088 C173.00458104 1088.22528924 171.00840136 1088.44761095 169.0078125 1088.62109375 C166.69284593 1088.92253842 166.69284593 1088.92253842 164 1091 C161.67085177 1091.36141955 159.33746522 1091.69699525 157 1092 C156.67 1092.33 156.34 1092.66 156 1093 C153.9720021 1093.2253331 151.94325126 1093.44767185 149.91015625 1093.62109375 C147.7671052 1093.86222227 147.7671052 1093.86222227 146 1096 C144.08984375 1096.37890625 144.08984375 1096.37890625 141.9375 1096.5625 C138.23263383 1096.55913448 138.23263383 1096.55913448 137 1098 C134.68917227 1098.56881913 132.36355903 1099.02763361 130.03125 1099.5 C128.01766043 1099.8098065 128.01766043 1099.8098065 127 1101 C124.9427083 1101.31923492 122.88386479 1101.51161352 120.8125 1101.71875 C118.9832467 1101.81998043 118.9832467 1101.81998043 118 1103 C115.68917227 1103.56881913 113.36355903 1104.02763361 111.03125 1104.5 C109.01766043 1104.8098065 109.01766043 1104.8098065 108 1106 C106.9275 1106.144375 105.855 1106.28875 104.75 1106.4375 C101.12657249 1106.82652131 101.12657249 1106.82652131 98.4375 1108.0625 C95.5087509 1109.18894196 93.11110233 1109.14470243 90 1109 C90 1109.66 90 1110.32 90 1111 C88.93458984 1111.19916016 88.93458984 1111.19916016 87.84765625 1111.40234375 C86.92855469 1111.57894531 86.00945313 1111.75554687 85.0625 1111.9375 C83.68771484 1112.19853516 83.68771484 1112.19853516 82.28515625 1112.46484375 C80.04710156 1112.77714988 80.04710156 1112.77714988 79 1114 C76.66666667 1114.33333333 74.33333333 1114.66666667 72 1115 C71.67 1115.33 71.34 1115.66 71 1116 C68.9720021 1116.2253331 66.94325126 1116.44767185 64.91015625 1116.62109375 C62.7671052 1116.86222227 62.7671052 1116.86222227 61 1119 C58.8359375 1119.1953125 58.8359375 1119.1953125 56.375 1119.125 C55.55773438 1119.10695313 54.74046875 1119.08890625 53.8984375 1119.0703125 C52.95871094 1119.03550781 52.95871094 1119.03550781 52 1119 C52 1119.66 52 1120.32 52 1121 C50.081875 1121.185625 50.081875 1121.185625 48.125 1121.375 C44.65209064 1121.69042399 44.65209064 1121.69042399 42 1124 C40.08984375 1124.37890625 40.08984375 1124.37890625 37.9375 1124.5625 C34.23263383 1124.55913448 34.23263383 1124.55913448 33 1126 C30.9720021 1126.2253331 28.94325126 1126.44767185 26.91015625 1126.62109375 C24.7671052 1126.86222227 24.7671052 1126.86222227 23 1129 C20.99511162 1129.254589 18.98801927 1129.50556865 16.97265625 1129.65625 C14.68567639 1129.91804076 14.68567639 1129.91804076 12 1132 C9.67085177 1132.36141955 7.33746522 1132.69699525 5 1133 C4.67 1133.33 4.34 1133.66 4 1134 C1.9720021 1134.2253331 -0.05674874 1134.44767185 -2.08984375 1134.62109375 C-4.2328948 1134.86222227 -4.2328948 1134.86222227 -6 1137 C-7.91015625 1137.37890625 -7.91015625 1137.37890625 -10.0625 1137.5625 C-13.76736617 1137.55913448 -13.76736617 1137.55913448 -15 1139 C-17.0279979 1139.2253331 -19.05674874 1139.44767185 -21.08984375 1139.62109375 C-23.2328948 1139.86222227 -23.2328948 1139.86222227 -25 1142 C-26.91015625 1142.37890625 -26.91015625 1142.37890625 -29.0625 1142.5625 C-32.76736617 1142.55913448 -32.76736617 1142.55913448 -34 1144 C-36.0279979 1144.2253331 -38.05674874 1144.44767185 -40.08984375 1144.62109375 C-42.2328948 1144.86222227 -42.2328948 1144.86222227 -44 1147 C-45.94367587 1147.26354927 -47.88879336 1147.52082345 -49.83984375 1147.72265625 C-53.72734231 1148.22177451 -57.49238202 1149.17324175 -60.9375 1151.0625 C-63.09936369 1152.04516531 -64.71384421 1152.25659385 -67.0625 1152.5 C-71.0457203 1152.70875489 -71.0457203 1152.70875489 -74 1155 C-76.32914823 1155.36141955 -78.66253478 1155.69699525 -81 1156 C-81.33 1156.33 -81.66 1156.66 -82 1157 C-84.31082773 1157.56881913 -86.63644097 1158.02763361 -88.96875 1158.5 C-90.98233957 1158.8098065 -90.98233957 1158.8098065 -92 1160 C-94.0572917 1160.31923492 -96.11613521 1160.51161352 -98.1875 1160.71875 C-100.0167533 1160.81998043 -100.0167533 1160.81998043 -101 1162 C-103.31082773 1162.56881913 -105.63644097 1163.02763361 -107.96875 1163.5 C-109.98233957 1163.8098065 -109.98233957 1163.8098065 -111 1165 C-113.0572917 1165.31923492 -115.11613521 1165.51161352 -117.1875 1165.71875 C-119.0167533 1165.81998043 -119.0167533 1165.81998043 -120 1167 C-122.31082773 1167.56881913 -124.63644097 1168.02763361 -126.96875 1168.5 C-128.98233957 1168.8098065 -128.98233957 1168.8098065 -130 1170 C-131.093125 1170.144375 -132.18625 1170.28875 -133.3125 1170.4375 C-136.82410863 1170.76524857 -136.82410863 1170.76524857 -139 1172.0625 C-141.97846323 1173.45865464 -144.76350659 1173.12448052 -148 1173 C-148 1173.66 -148 1174.32 -148 1175 C-149.98567708 1175.1953125 -151.97135417 1175.390625 -153.95703125 1175.5859375 C-156.29988142 1175.92665391 -156.29988142 1175.92665391 -159 1178 C-161.32914823 1178.36141955 -163.66253478 1178.69699525 -166 1179 C-166.33 1179.33 -166.66 1179.66 -167 1180 C-169.0279979 1180.2253331 -171.05674874 1180.44767185 -173.08984375 1180.62109375 C-175.2328948 1180.86222227 -175.2328948 1180.86222227 -177 1183 C-179.1640625 1183.1953125 -179.1640625 1183.1953125 -181.625 1183.125 C-182.44226563 1183.10695313 -183.25953125 1183.08890625 -184.1015625 1183.0703125 C-185.04128906 1183.03550781 -185.04128906 1183.03550781 -186 1183 C-186 1183.66 -186 1184.32 -186 1185 C-187.918125 1185.185625 -187.918125 1185.185625 -189.875 1185.375 C-193.34790936 1185.69042399 -193.34790936 1185.69042399 -196 1188 C-198.49023438 1188.5625 -198.49023438 1188.5625 -201.59375 1189 C-203.26244141 1189.2475 -203.26244141 1189.2475 -204.96484375 1189.5 C-207.32161458 1189.83333333 -209.67838542 1190.16666667 -212.03515625 1190.5 C-213.70384766 1190.7475 -213.70384766 1190.7475 -215.40625 1191 C-216.43041016 1191.144375 -217.45457031 1191.28875 -218.50976562 1191.4375 C-221.15894899 1191.80299437 -221.15894899 1191.80299437 -223 1194 C-225.97390747 1194.24050903 -225.97390747 1194.24050903 -229.83642578 1194.22705078 C-230.53897491 1194.22734283 -231.24152405 1194.22763489 -231.96536255 1194.22793579 C-234.29213731 1194.22654023 -236.61859354 1194.21096872 -238.9453125 1194.1953125 C-240.55671005 1194.19158317 -242.16810987 1194.18873582 -243.7795105 1194.18673706 C-248.02433514 1194.17909431 -252.2690233 1194.15944039 -256.51379395 1194.1373291 C-260.8438126 1194.11688443 -265.17385326 1194.1077383 -269.50390625 1194.09765625 C-278.00266686 1194.07619504 -286.50131646 1194.04205145 -295 1194 C-295.33 1193.34 -295.66 1192.68 -296 1192 C-298.46791467 1191.37308242 -298.46791467 1191.37308242 -301.4609375 1191 C-302.57210938 1190.835 -303.68328125 1190.67 -304.828125 1190.5 C-305.99859375 1190.335 -307.1690625 1190.17 -308.375 1190 C-310.67546618 1189.67354804 -312.97500978 1189.34050781 -315.2734375 1189 C-316.29872559 1188.855625 -317.32401367 1188.71125 -318.38037109 1188.5625 C-321 1188 -321 1188 -324 1186 C-325.051875 1185.855625 -326.10375 1185.71125 -327.1875 1185.5625 C-330.58849502 1185.06071385 -333.40262215 1184.21215636 -336.58203125 1182.9453125 C-339.61208146 1181.76070483 -342.67914602 1180.69929215 -345.75 1179.625 C-357.26485204 1175.5055678 -368.16985661 1170.56802125 -379.03710938 1164.99169922 C-380.42628885 1164.28985258 -381.82445203 1163.60565759 -383.22851562 1162.93408203 C-383.95232422 1162.58587402 -384.67613281 1162.23766602 -385.421875 1161.87890625 C-386.0828418 1161.56638916 -386.74380859 1161.25387207 -387.42480469 1160.93188477 C-389 1160 -389 1160 -390 1158 C-392.02463255 1157.34786708 -392.02463255 1157.34786708 -394 1157 C-394 1156.34 -394 1155.68 -394 1155 C-394.71671875 1154.731875 -395.4334375 1154.46375 -396.171875 1154.1875 C-399.03057903 1152.98716019 -401.59146825 1151.59193518 -404.25 1150 C-405.12140625 1149.484375 -405.9928125 1148.96875 -406.890625 1148.4375 C-409 1147 -409 1147 -410 1145 C-411.06734375 1144.36384766 -411.06734375 1144.36384766 -412.15625 1143.71484375 C-415.57237755 1141.65484376 -418.50171028 1139.17209921 -421.5 1136.5625 C-422.11093506 1136.03390381 -422.72187012 1135.50530762 -423.35131836 1134.96069336 C-429.69483442 1129.44270896 -435.91182748 1123.79834474 -442 1118 C-442.5986084 1117.43007324 -443.1972168 1116.86014648 -443.81396484 1116.27294922 C-445.63674579 1114.52601747 -447.44564329 1112.7659396 -449.25 1111 C-450.09220093 1110.18994507 -450.09220093 1110.18994507 -450.95141602 1109.36352539 C-453.69487254 1106.64319149 -455.28333704 1104.79242607 -456 1101 C-456.66 1101 -457.32 1101 -458 1101 C-462.18548016 1097.15572746 -464.32515343 1093.41104276 -466 1088 C-466.99 1087.67 -467.98 1087.34 -469 1087 C-472 1082.66666667 -472 1082.66666667 -472 1080 C-472.66 1080 -473.32 1080 -474 1080 C-476.04169485 1077.09451118 -477 1075.59857954 -477 1072 C-477.66 1072 -478.32 1072 -479 1072 C-479.0825 1071.4225 -479.165 1070.845 -479.25 1070.25 C-479.86490423 1067.84627033 -479.86490423 1067.84627033 -481.9375 1066.0625 C-484.23903825 1063.76096175 -484.91447931 1062.03945792 -486 1059 C-487.3491609 1056.1257007 -488.60537915 1053.50511469 -490.5625 1051 C-492.3767938 1048.47576515 -493.05455077 1045.95452886 -494 1043 C-494.495 1042.01 -494.99 1041.02 -495.5 1040 C-496.98124293 1037.03751413 -497.97333467 1034.14416258 -499 1031 C-499.495 1029.865625 -499.99 1028.73125 -500.5 1027.5625 C-501.56783229 1025.02639832 -502.4059209 1022.7491021 -503.125 1020.125 C-503.68110322 1017.15547637 -503.68110322 1017.15547637 -505 1016 C-505.14115161 1013.32941149 -505.04247107 1010.67567762 -505 1008 C-505.66 1008 -506.32 1008 -507 1008 C-508.1577506 1004.52674819 -508.06866652 1001.63932552 -508 998 C-508.66 998 -509.32 998 -510 998 C-510.33 994.7 -510.66 991.4 -511 988 C-511.66 988 -512.32 988 -513 988 C-513.22786458 985.94921875 -513.45572917 983.8984375 -513.68359375 981.84765625 C-513.81886614 979.98859771 -513.81886614 979.98859771 -515 979 C-515.07179964 977.48071962 -515.08392007 975.95832518 -515.0625 974.4375 C-515.05347656 973.61121094 -515.04445313 972.78492188 -515.03515625 971.93359375 C-515.01775391 970.97646484 -515.01775391 970.97646484 -515 970 C-515.99 969.67 -516.98 969.34 -518 969 C-518 966.03 -518 963.06 -518 960 C-518.66 960 -519.32 960 -520 960 C-520.1953125 958.01432292 -520.390625 956.02864583 -520.5859375 954.04296875 C-520.92665391 951.70011858 -520.92665391 951.70011858 -523 949 C-523.33926947 946.66752239 -523.67240066 944.33414529 -524 942 C-524.63270867 940.65022151 -525.30062468 939.31647119 -526 938 C-527.57713392 933.07145651 -528.60508257 928.12756479 -529.53515625 923.0390625 C-529.80591773 921.01666471 -529.80591773 921.01666471 -531 920 C-531.33333333 917.66666667 -531.66666667 915.33333333 -532 913 C-532.33 912.67 -532.66 912.34 -533 912 C-533.2253331 909.9720021 -533.44767185 907.94325126 -533.62109375 905.91015625 C-533.86222227 903.7671052 -533.86222227 903.7671052 -536 902 C-536.37890625 900.08984375 -536.37890625 900.08984375 -536.5625 897.9375 C-536.55913448 894.23263383 -536.55913448 894.23263383 -538 893 C-538.2253331 890.9720021 -538.44767185 888.94325126 -538.62109375 886.91015625 C-538.86222227 884.7671052 -538.86222227 884.7671052 -541 883 C-541.26991906 880.31160615 -541.08737357 877.70858064 -541 875 C-541.66 875 -542.32 875 -543 875 C-543.33 871.7 -543.66 868.4 -544 865 C-544.66 865 -545.32 865 -546 865 C-546.04898438 864.38511719 -546.09796875 863.77023437 -546.1484375 863.13671875 C-546.26058594 861.92435547 -546.26058594 861.92435547 -546.375 860.6875 C-546.44460938 859.88699219 -546.51421875 859.08648438 -546.5859375 858.26171875 C-546.89564426 855.72775559 -546.89564426 855.72775559 -549 853 C-550.69424005 847.44665762 -551.20682072 842.7909801 -551 837 C-551.66 837 -552.32 837 -553 837 C-554.60725635 833.78548731 -554.05748185 830.56387464 -554 827 C-554.66 827 -555.32 827 -556 827 C-556.13277344 826.28972656 -556.26554687 825.57945312 -556.40234375 824.84765625 C-556.57894531 823.92855469 -556.75554687 823.00945313 -556.9375 822.0625 C-557.19853516 820.68771484 -557.19853516 820.68771484 -557.46484375 819.28515625 C-557.77714988 817.04710156 -557.77714988 817.04710156 -559 816 C-559.33333333 813.66666667 -559.66666667 811.33333333 -560 809 C-560.33 808.67 -560.66 808.34 -561 808 C-561.2253331 805.9720021 -561.44767185 803.94325126 -561.62109375 801.91015625 C-561.86222227 799.7671052 -561.86222227 799.7671052 -564 798 C-564.34375 796.046875 -564.34375 796.046875 -564.5 793.75 C-564.93481874 788.98987907 -566.07251752 784.95801857 -568.125 780.625 C-569.34114514 776.97656457 -569.13007354 773.8371694 -569 770 C-569.66 770 -570.32 770 -571 770 C-572.60725635 766.78548731 -572.05748185 763.56387464 -572 760 C-572.66 760 -573.32 760 -574 760 C-574.1953125 758.01432292 -574.390625 756.02864583 -574.5859375 754.04296875 C-574.92665391 751.70011858 -574.92665391 751.70011858 -577 749 C-577.36141955 746.67085177 -577.69699525 744.33746522 -578 742 C-578.33 741.67 -578.66 741.34 -579 741 C-579.2253331 738.9720021 -579.44767185 736.94325126 -579.62109375 734.91015625 C-579.86222227 732.7671052 -579.86222227 732.7671052 -582 731 C-582.37890625 729.08984375 -582.37890625 729.08984375 -582.5625 726.9375 C-582.55913448 723.23263383 -582.55913448 723.23263383 -584 722 C-584.22528924 720.00458104 -584.44761095 718.00840136 -584.62109375 716.0078125 C-584.92253842 713.69284593 -584.92253842 713.69284593 -587 711 C-587.33926947 708.66752239 -587.67240066 706.33414529 -588 704 C-588.63270867 702.65022151 -589.30062468 701.31647119 -590 700 C-591.2348418 696.22283684 -592.09232913 692.62831841 -592.5 688.6875 C-592.62478684 684.97142293 -592.62478684 684.97142293 -595 683 C-595.37890625 681.08984375 -595.37890625 681.08984375 -595.5625 678.9375 C-595.55913448 675.23263383 -595.55913448 675.23263383 -597 674 C-597.2253331 671.9720021 -597.44767185 669.94325126 -597.62109375 667.91015625 C-597.86222227 665.7671052 -597.86222227 665.7671052 -600 664 C-600.37890625 662.08984375 -600.37890625 662.08984375 -600.5625 659.9375 C-600.55913448 656.23263383 -600.55913448 656.23263383 -602 655 C-602.2253331 652.9720021 -602.44767185 650.94325126 -602.62109375 648.91015625 C-602.86222227 646.7671052 -602.86222227 646.7671052 -605 645 C-605.26991906 642.31160615 -605.08737357 639.70858064 -605 637 C-605.66 637 -606.32 637 -607 637 C-607.33 633.7 -607.66 630.4 -608 627 C-608.66 627 -609.32 627 -610 627 C-610.04898438 626.38511719 -610.09796875 625.77023437 -610.1484375 625.13671875 C-610.22320313 624.32847656 -610.29796875 623.52023437 -610.375 622.6875 C-610.44460938 621.88699219 -610.51421875 621.08648438 -610.5859375 620.26171875 C-610.89564426 617.72775559 -610.89564426 617.72775559 -613 615 C-614.69424005 609.44665762 -615.20682072 604.7909801 -615 599 C-615.66 599 -616.32 599 -617 599 C-617.13277344 598.28972656 -617.26554687 597.57945312 -617.40234375 596.84765625 C-617.57894531 595.92855469 -617.75554687 595.00945313 -617.9375 594.0625 C-618.11152344 593.14597656 -618.28554688 592.22945312 -618.46484375 591.28515625 C-618.77714988 589.04710156 -618.77714988 589.04710156 -620 588 C-620.144375 586.88625 -620.28875 585.7725 -620.4375 584.625 C-620.75300217 580.91489453 -620.75300217 580.91489453 -623 578 C-623.25760279 575.30547479 -623.08900053 572.71451625 -623 570 C-623.66 570 -624.32 570 -625 570 C-625.33 566.7 -625.66 563.4 -626 560 C-626.66 560 -627.32 560 -628 560 C-628.16435547 559.09121094 -628.16435547 559.09121094 -628.33203125 558.1640625 C-629.19062225 553.62679299 -630.18639859 549.26580241 -631.625 544.875 C-633.03434617 540.39908653 -633.25959965 536.67279368 -633 532 C-633.66 532 -634.32 532 -635 532 C-636.60725635 528.78548731 -636.05748185 525.56387464 -636 522 C-636.66 522 -637.32 522 -638 522 C-638.1953125 520.01432292 -638.390625 518.02864583 -638.5859375 516.04296875 C-638.92665391 513.70011858 -638.92665391 513.70011858 -641 511 C-641.36141955 508.67085177 -641.69699525 506.33746522 -642 504 C-642.33 503.67 -642.66 503.34 -643 503 C-643.2253331 500.9720021 -643.44767185 498.94325126 -643.62109375 496.91015625 C-643.86222227 494.7671052 -643.86222227 494.7671052 -646 493 C-646.59423828 490.6015625 -646.59423828 490.6015625 -647.0703125 487.625 C-647.24433594 486.55765625 -647.41835938 485.4903125 -647.59765625 484.390625 C-647.85869141 482.71226562 -647.85869141 482.71226562 -648.125 481 C-648.39763672 479.32164062 -648.39763672 479.32164062 -648.67578125 477.609375 C-650 469.36536654 -650 469.36536654 -650 467 C-650.66 467 -651.32 467 -652 467 C-652.0462752 456.99500805 -652.08184462 446.99004142 -652.10362434 436.98496437 C-652.11407582 432.33954726 -652.12825979 427.69420319 -652.15087891 423.04882812 C-652.1725588 418.56846775 -652.18455834 414.08817778 -652.18975449 409.60776901 C-652.19345899 407.89568345 -652.20069266 406.18360188 -652.21146011 404.47154617 C-652.22591068 402.07941514 -652.22798067 399.68757758 -652.22705078 397.29541016 C-652.23424133 396.58259384 -652.24143188 395.86977753 -652.24884033 395.13536072 C-652.22810432 390.22810432 -652.22810432 390.22810432 -650 388 C-649.56758381 385.82661404 -649.22452617 383.63481797 -648.9375 381.4375 C-648.09722222 375.09722222 -648.09722222 375.09722222 -647 374 C-646.64791019 372.50879612 -646.34374528 371.00617308 -646.0625 369.5 C-645.8871875 368.59507812 -645.711875 367.69015625 -645.53125 366.7578125 C-645.3559375 365.84773438 -645.180625 364.93765625 -645 364 C-644.00880137 358.96140697 -642.82686417 354.25277547 -640.9296875 349.4609375 C-639.62472124 346.00661505 -638.47283136 342.50512504 -637.3125 339 C-636.97255005 337.97398682 -636.97255005 337.97398682 -636.62573242 336.92724609 C-636.08262221 335.28522695 -635.54113984 333.64266954 -635 332 C-634.34 332 -633.68 332 -633 332 C-633 330.35 -633 328.7 -633 327 C-632.34 327 -631.68 327 -631 327 C-630.93554688 326.2059375 -630.87109375 325.411875 -630.8046875 324.59375 C-629.71863977 319.74343976 -627.5046109 315.83453203 -625.125 311.5 C-624.23132227 309.84399199 -623.33808292 308.18774732 -622.4453125 306.53125 C-621.81351074 305.36722656 -621.81351074 305.36722656 -621.16894531 304.1796875 C-619.72098003 301.47972215 -618.34857896 298.75074383 -617 296 C-616.34 296 -615.68 296 -615 296 C-614.90589844 295.45859375 -614.81179688 294.9171875 -614.71484375 294.359375 C-613.78860747 291.30228912 -612.2754644 288.94230995 -610.5625 286.25 C-609.94503906 285.26515625 -609.32757812 284.2803125 -608.69140625 283.265625 C-608.13324219 282.51796875 -607.57507813 281.7703125 -607 281 C-606.34 281 -605.68 281 -605 281 C-604.71125 280.236875 -604.4225 279.47375 -604.125 278.6875 C-603 276 -603 276 -601 273 C-600.34 273 -599.68 273 -599 273 C-598.72800781 272.41992188 -598.45601562 271.83984375 -598.17578125 271.2421875 C-596.22057426 267.51365324 -593.58236196 264.31202198 -591 261 C-590.52691406 260.38898438 -590.05382812 259.77796875 -589.56640625 259.1484375 C-588.42846463 257.72347797 -587.21990645 256.35545161 -586 255 C-585.34 255 -584.68 255 -584 255 C-584 254.34 -584 253.68 -584 253 C-583.34 253 -582.68 253 -582 253 C-581.67 252.01 -581.34 251.02 -581 250 C-580.34 250 -579.68 250 -579 250 C-579 249.34 -579 248.68 -579 248 C-577.625 246.375 -577.625 246.375 -576 245 C-575.34 245 -574.68 245 -574 245 C-573.67 244.01 -573.34 243.02 -573 242 C-572.34 242 -571.68 242 -571 242 C-571 241.34 -571 240.68 -571 240 C-569.35546875 238.30859375 -569.35546875 238.30859375 -567.1875 236.4375 C-566.47980469 235.81746094 -565.77210938 235.19742188 -565.04296875 234.55859375 C-563 233 -563 233 -560 232 C-560 231.34 -560 230.68 -560 230 C-558.3125 228.484375 -558.3125 228.484375 -556 226.75 C-555.18273437 226.13382813 -554.36546875 225.51765625 -553.5234375 224.8828125 C-552.69070313 224.26148438 -551.85796875 223.64015625 -551 223 C-550.24976563 222.41992188 -549.49953125 221.83984375 -548.7265625 221.2421875 C-548.03304687 220.70851563 -547.33953125 220.17484375 -546.625 219.625 C-545.99851562 219.14289063 -545.37203125 218.66078125 -544.7265625 218.1640625 C-543 217 -543 217 -540 216 C-539.67 215.34 -539.34 214.68 -539 214 C-536.68509161 212.61105496 -534.3649627 211.29676456 -532 210 C-530.72861853 209.25092956 -529.4577597 208.50097114 -528.1875 207.75 C-525 206 -525 206 -523 206 C-523 205.34 -523 204.68 -523 204 C-521.88625 203.5978125 -521.88625 203.5978125 -520.75 203.1875 C-517.9931683 202.14455161 -517.9931683 202.14455161 -516 200.375 C-513.51246105 198.66481697 -511.95602718 198.7536644 -509 199 C-508.67 198.01 -508.34 197.02 -508 196 C-505.9609375 194.9375 -505.9609375 194.9375 -503.375 194 C-500.28387178 192.85073438 -497.24642919 191.68978247 -494.25 190.3125 C-491.12126635 189.04897295 -488.33852685 188.40713742 -485 188 C-485 187.34 -485 186.68 -485 186 C-483.25183142 185.49363393 -481.50137737 184.99515381 -479.75 184.5 C-478.77546875 184.2215625 -477.8009375 183.943125 -476.796875 183.65625 C-474 183 -474 183 -470 183 C-470 182.34 -470 181.68 -470 181 C-467.36 180.67 -464.72 180.34 -462 180 C-460.92279971 176.76839914 -461.03394631 176.09589043 -461.9609375 172.98046875 C-462.18523437 172.20509766 -462.40953125 171.42972656 -462.640625 170.63085938 C-462.88296875 169.82455078 -463.1253125 169.01824219 -463.375 168.1875 C-468.21201409 151.80277918 -468.699509 137.00885775 -460.9375 121.375 C-453.25702406 108.03774198 -441.19834497 99.48983491 -426.375 95.5 C-411.52866713 93.15286547 -397.50567248 95.62009923 -385 104 C-371.63607037 114.05234003 -366.59554737 126.50873467 -362 142 C-361.61457031 143.25296875 -361.22914063 144.5059375 -360.83203125 145.796875 C-360 149 -360 149 -360 153 C-359.34 152.525625 -358.68 152.05125 -358 151.5625 C-354.21605861 149.59169719 -351.22960359 149.42296036 -347 149 C-346.67 148.67 -346.34 148.34 -346 148 C-343.68917227 147.43118087 -341.36355903 146.97236639 -339.03125 146.5 C-337.01766043 146.1901935 -337.01766043 146.1901935 -336 145 C-332.85635887 144.3435117 -329.70849009 143.75496205 -326.546875 143.19335938 C-323.11588044 142.54921351 -320.94637109 141.96424739 -318 140 C-315.68339835 139.63661151 -313.39759253 139.49737882 -311.05859375 139.34375 C-308.78100001 139.1683252 -308.78100001 139.1683252 -307 137 C-304.31160615 136.73008094 -301.70858064 136.91262643 -299 137 C-299 136.34 -299 135.68 -299 135 C-297.01432292 134.8046875 -295.02864583 134.609375 -293.04296875 134.4140625 C-290.70011858 134.07334609 -290.70011858 134.07334609 -288 132 C-285.67085177 131.63858045 -283.33746522 131.30300475 -281 131 C-280.67 130.67 -280.34 130.34 -280 130 C-277.9720021 129.7746669 -275.94325126 129.55232815 -273.91015625 129.37890625 C-271.7671052 129.13777773 -271.7671052 129.13777773 -270 127 C-268.08984375 126.62109375 -268.08984375 126.62109375 -265.9375 126.4375 C-262.23263383 126.44086552 -262.23263383 126.44086552 -261 125 C-258.68917227 124.43118087 -256.36355903 123.97236639 -254.03125 123.5 C-252.01766043 123.1901935 -252.01766043 123.1901935 -251 122 C-248.99489783 121.76990631 -246.98976606 121.54006211 -244.984375 121.3125 C-242.67072114 120.94814506 -241.04660663 120.12233267 -239 119 C-235.24601598 117.77273599 -231.66661214 116.91038032 -227.75 116.5 C-223.92897973 116.2703352 -223.92897973 116.2703352 -221 114 C-218.67085177 113.63858045 -216.33746522 113.30300475 -214 113 C-213.67 112.67 -213.34 112.34 -213 112 C-210.9720021 111.7746669 -208.94325126 111.55232815 -206.91015625 111.37890625 C-204.7671052 111.13777773 -204.7671052 111.13777773 -203 109 C-201.08984375 108.62109375 -201.08984375 108.62109375 -198.9375 108.4375 C-195.23263383 108.44086552 -195.23263383 108.44086552 -194 107 C-191.68917227 106.43118087 -189.36355903 105.97236639 -187.03125 105.5 C-185.01766043 105.1901935 -185.01766043 105.1901935 -184 104 C-181.9427083 103.68076508 -179.88386479 103.48838648 -177.8125 103.28125 C-175.9832467 103.18001957 -175.9832467 103.18001957 -175 102 C-172.68917227 101.43118087 -170.36355903 100.97236639 -168.03125 100.5 C-166.01766043 100.1901935 -166.01766043 100.1901935 -165 99 C-163.00458104 98.77471076 -161.00840136 98.55238905 -159.0078125 98.37890625 C-156.69284593 98.07746158 -156.69284593 98.07746158 -154 96 C-151.67085177 95.63858045 -149.33746522 95.30300475 -147 95 C-146.67 94.67 -146.34 94.34 -146 94 C-143.9720021 93.7746669 -141.94325126 93.55232815 -139.91015625 93.37890625 C-137.7671052 93.13777773 -137.7671052 93.13777773 -136 91 C-134.08984375 90.62109375 -134.08984375 90.62109375 -131.9375 90.4375 C-128.23263383 90.44086552 -128.23263383 90.44086552 -127 89 C-124.68917227 88.43118087 -122.36355903 87.97236639 -120.03125 87.5 C-118.01766043 87.1901935 -118.01766043 87.1901935 -117 86 C-114.9427083 85.68076508 -112.88386479 85.48838648 -110.8125 85.28125 C-108.9832467 85.18001957 -108.9832467 85.18001957 -108 84 C-105.68917227 83.43118087 -103.36355903 82.97236639 -101.03125 82.5 C-99.01766043 82.1901935 -99.01766043 82.1901935 -98 81 C-94.61169117 80.343351 -91.21989252 79.75254968 -87.81445312 79.19335938 C-83.46602534 78.53000685 -83.46602534 78.53000685 -80 76 C-78.68 76 -77.36 76 -76 76 C-76.176521 75.36497559 -76.35304199 74.72995117 -76.53491211 74.07568359 C-77.33893883 71.17632251 -78.13825748 68.27568338 -78.9375 65.375 C-79.21529297 64.37597656 -79.49308594 63.37695312 -79.77929688 62.34765625 C-84.44861108 45.35810337 -84.15209108 30.65349697 -75.71875 14.8203125 C-68.31912481 2.67820026 -56.67182464 -4.65906843 -43.13891602 -8.53271484 C-27.83977749 -11.87509027 -12.93955468 -8.23779457 0 0 Z " fill="#243A50" transform="translate(1027,407)"/>
<path d="M0 0 C3.4591284 2.470806 6.63872157 5.13407787 9.83203125 7.93359375 C14.05687199 11.59808719 18.29883589 15.22447099 22.64453125 18.74609375 C28.04529297 23.13322277 33.31920825 27.65832787 38.59375 32.1953125 C45.83269249 38.42131742 53.10319034 44.60695615 60.51953125 50.62109375 C65.05513261 54.32961486 69.55626459 58.0759613 74.01953125 61.87109375 C74.96578369 62.6607251 74.96578369 62.6607251 75.93115234 63.46630859 C82.75056937 69.31074362 87.38680287 75.34493681 88.3984375 84.55859375 C89.00585263 97.0987771 82.46539184 104.80194196 74.52880859 113.67626953 C72.53762936 115.93434404 70.65554149 118.27491096 68.76953125 120.62109375 C64.60296702 125.74342899 60.28251844 130.72026753 55.9440918 135.6965332 C52.01964028 140.20824738 48.21026342 144.7993493 44.4453125 149.4453125 C40.76680738 153.92322111 36.97413469 158.3020867 33.1953125 162.6953125 C26.96930758 169.93425499 20.78366885 177.20475284 14.76953125 184.62109375 C10.60296702 189.74342899 6.28251844 194.72026753 1.9440918 199.6965332 C-1.98035972 204.20824738 -5.78973658 208.7993493 -9.5546875 213.4453125 C-13.23319262 217.92322111 -17.02586531 222.3020867 -20.8046875 226.6953125 C-27.03069242 233.93425499 -33.21633115 241.20475284 -39.23046875 248.62109375 C-43.39703298 253.74342899 -47.71748156 258.72026753 -52.0559082 263.6965332 C-55.98035972 268.20824738 -59.78973658 272.7993493 -63.5546875 277.4453125 C-67.23319262 281.92322111 -71.02586531 286.3020867 -74.8046875 290.6953125 C-81.04974196 297.95640378 -87.25178025 305.25162804 -93.29296875 312.68359375 C-97.70693105 318.10466331 -102.2532968 323.40451349 -106.8125 328.703125 C-111.068988 333.65168091 -115.27713881 338.64087915 -119.48779297 343.62841797 C-120.88006292 345.27518354 -122.27552348 346.91919442 -123.671875 348.5625 C-127.90400508 353.54635623 -132.11284273 358.54168647 -136.23046875 363.62109375 C-140.39703298 368.74342899 -144.71748156 373.72026753 -149.0559082 378.6965332 C-152.98035972 383.20824738 -156.78973658 387.7993493 -160.5546875 392.4453125 C-164.23319262 396.92322111 -168.02586531 401.3020867 -171.8046875 405.6953125 C-178.03069242 412.93425499 -184.21633115 420.20475284 -190.23046875 427.62109375 C-194.39703298 432.74342899 -198.71748156 437.72026753 -203.0559082 442.6965332 C-206.98035972 447.20824738 -210.78973658 451.7993493 -214.5546875 456.4453125 C-218.23319262 460.92322111 -222.02586531 465.3020867 -225.8046875 469.6953125 C-232.03069242 476.93425499 -238.21633115 484.20475284 -244.23046875 491.62109375 C-248.39703298 496.74342899 -252.71748156 501.72026753 -257.0559082 506.6965332 C-260.98035972 511.20824738 -264.78973658 515.7993493 -268.5546875 520.4453125 C-272.23319262 524.92322111 -276.02586531 529.3020867 -279.8046875 533.6953125 C-286.03069242 540.93425499 -292.21633115 548.20475284 -298.23046875 555.62109375 C-302.39703298 560.74342899 -306.71748156 565.72026753 -311.0559082 570.6965332 C-314.98035972 575.20824738 -318.78973658 579.7993493 -322.5546875 584.4453125 C-326.23319262 588.92322111 -330.02586531 593.3020867 -333.8046875 597.6953125 C-340.03069242 604.93425499 -346.21633115 612.20475284 -352.23046875 619.62109375 C-356.39703298 624.74342899 -360.71748156 629.72026753 -365.0559082 634.6965332 C-368.98035972 639.20824738 -372.78973658 643.7993493 -376.5546875 648.4453125 C-380.23319262 652.92322111 -384.02586531 657.3020867 -387.8046875 661.6953125 C-394.03069242 668.93425499 -400.21633115 676.20475284 -406.23046875 683.62109375 C-410.39703298 688.74342899 -414.71748156 693.72026753 -419.0559082 698.6965332 C-422.98035972 703.20824738 -426.78973658 707.7993493 -430.5546875 712.4453125 C-434.23319262 716.92322111 -438.02586531 721.3020867 -441.8046875 725.6953125 C-448.03069242 732.93425499 -454.21633115 740.20475284 -460.23046875 747.62109375 C-464.39703298 752.74342899 -468.71748156 757.72026753 -473.0559082 762.6965332 C-476.98035972 767.20824738 -480.78973658 771.7993493 -484.5546875 776.4453125 C-488.23319262 780.92322111 -492.02586531 785.3020867 -495.8046875 789.6953125 C-502.03069242 796.93425499 -508.21633115 804.20475284 -514.23046875 811.62109375 C-517.85272111 816.07425705 -521.58415193 820.41958092 -525.35546875 824.74609375 C-531.36984919 831.64609672 -537.31294179 838.60297589 -542.8671875 845.8828125 C-547.36412326 851.22789331 -553.87647498 854.63681652 -560.85546875 855.24609375 C-576.13981682 855.2291488 -583.9860268 852.79817973 -594.85546875 842.24609375 C-596.37107265 840.85225717 -597.89792171 839.47147098 -599.42553711 838.09082031 C-604.08231766 833.8763937 -608.59511113 829.54785933 -613 825.0703125 C-614.86960522 823.23219537 -616.80397482 821.51623687 -618.79296875 819.80859375 C-621.78348591 817.23944104 -624.58663559 814.55292119 -627.35546875 811.74609375 C-631.36331442 807.69749033 -635.52883307 803.94769378 -639.85546875 800.24609375 C-641.0527904 799.20914919 -642.24933281 798.17130455 -643.4453125 797.1328125 C-646.01987379 794.89732736 -648.59476535 792.66223481 -651.171875 790.4296875 C-651.77845947 789.9030249 -652.38504395 789.3763623 -653.01000977 788.83374023 C-654.2627644 787.7559967 -655.52402568 786.6880783 -656.79272461 785.62915039 C-657.41155518 785.1108667 -658.03038574 784.59258301 -658.66796875 784.05859375 C-659.22226562 783.5996875 -659.7765625 783.14078125 -660.34765625 782.66796875 C-661.9372406 781.16898247 -663.08983059 779.62739083 -664.29296875 777.80859375 C-666.64874388 774.30178843 -669.45935627 771.83193241 -672.68359375 769.12890625 C-675.02386794 767.1001074 -677.18442322 764.9545711 -679.35546875 762.74609375 C-682.10402865 759.95988234 -684.88406666 757.29300983 -687.85546875 754.74609375 C-690.82687084 752.19917767 -693.60690885 749.53230516 -696.35546875 746.74609375 C-699.08376282 743.98048967 -701.84063709 741.33322344 -704.79296875 738.80859375 C-708.88605178 735.30139935 -712.62771579 731.48884217 -716.4140625 727.65625 C-719.12749602 724.97754843 -721.96323898 722.50001257 -724.859375 720.0234375 C-727.92213602 717.29632152 -730.75770368 714.35204738 -733.63671875 711.43359375 C-735.64977507 709.44889033 -737.70993278 707.58512459 -739.85546875 705.74609375 C-742.82687084 703.19917767 -745.60690885 700.53230516 -748.35546875 697.74609375 C-751.08376282 694.98048967 -753.84063709 692.33322344 -756.79296875 689.80859375 C-760.88605178 686.30139935 -764.62771579 682.48884217 -768.4140625 678.65625 C-771.12749602 675.97754843 -773.96323898 673.50001257 -776.859375 671.0234375 C-779.92213602 668.29632152 -782.75770368 665.35204738 -785.63671875 662.43359375 C-787.64977507 660.44889033 -789.70993278 658.58512459 -791.85546875 656.74609375 C-795.64905608 653.49444747 -799.12939522 649.98896281 -802.63671875 646.43359375 C-804.64977507 644.44889033 -806.70993278 642.58512459 -808.85546875 640.74609375 C-811.82687084 638.19917767 -814.60690885 635.53230516 -817.35546875 632.74609375 C-820.08376282 629.98048967 -822.84063709 627.33322344 -825.79296875 624.80859375 C-829.88605178 621.30139935 -833.62771579 617.48884217 -837.4140625 613.65625 C-840.12749602 610.97754843 -842.96323898 608.50001257 -845.859375 606.0234375 C-848.92213602 603.29632152 -851.75770368 600.35204738 -854.63671875 597.43359375 C-856.64977507 595.44889033 -858.70993278 593.58512459 -860.85546875 591.74609375 C-863.82687084 589.19917767 -866.60690885 586.53230516 -869.35546875 583.74609375 C-872.08376282 580.98048967 -874.84063709 578.33322344 -877.79296875 575.80859375 C-881.88605178 572.30139935 -885.62771579 568.48884217 -889.4140625 564.65625 C-892.12749602 561.97754843 -894.96323898 559.50001257 -897.859375 557.0234375 C-900.92350688 554.2951009 -903.76028707 551.34941467 -906.640625 548.4296875 C-908.63206336 546.46634704 -910.66849453 544.62529706 -912.79296875 542.80859375 C-929.78822366 528.06120823 -929.78822366 528.06120823 -931.73046875 515.74609375 C-932.33813662 506.77130678 -929.44774161 500.15927874 -923.85546875 493.24609375 C-921.91239541 491.16507403 -919.91094246 489.17686022 -917.85546875 487.20703125 C-915.92788545 485.31709606 -914.17008774 483.36084423 -912.41796875 481.30859375 C-909.84881604 478.31807659 -907.16229619 475.51492691 -904.35546875 472.74609375 C-901.56925734 469.99753385 -898.90238483 467.21749584 -896.35546875 464.24609375 C-893.80855267 461.27469166 -891.14168016 458.49465365 -888.35546875 455.74609375 C-885.58986467 453.01779968 -882.94259844 450.26092541 -880.41796875 447.30859375 C-876.9119719 443.21690834 -873.10084984 439.47642492 -869.26953125 435.69140625 C-867.16613276 433.5607793 -865.1801663 431.39128952 -863.23046875 429.12109375 C-862.10734282 427.82779722 -860.98232077 426.53614503 -859.85546875 425.24609375 C-859.24316406 424.54226563 -858.63085938 423.8384375 -858 423.11328125 C-851.45435859 416.03196859 -845.01179964 413.1261283 -835.35546875 412.68359375 C-820.22853688 413.28513256 -810.6567869 425.31197036 -800.7109375 435.421875 C-798.84133228 437.25999213 -796.90696268 438.97595063 -794.91796875 440.68359375 C-791.92745159 443.25274646 -789.12430191 445.93926631 -786.35546875 448.74609375 C-783.60690885 451.53230516 -780.82687084 454.19917767 -777.85546875 456.74609375 C-774.88406666 459.29300983 -772.10402865 461.95988234 -769.35546875 464.74609375 C-766.62717468 467.51169783 -763.87030041 470.15896406 -760.91796875 472.68359375 C-756.82488572 476.19078815 -753.08322171 480.00334533 -749.296875 483.8359375 C-746.58344148 486.51463907 -743.74769852 488.99217493 -740.8515625 491.46875 C-737.78880148 494.19586598 -734.95323382 497.14014012 -732.07421875 500.05859375 C-730.06116243 502.04329717 -728.00100472 503.90706291 -725.85546875 505.74609375 C-722.88406666 508.29300983 -720.10402865 510.95988234 -717.35546875 513.74609375 C-714.62717468 516.51169783 -711.87030041 519.15896406 -708.91796875 521.68359375 C-704.82488572 525.19078815 -701.08322171 529.00334533 -697.296875 532.8359375 C-694.58344148 535.51463907 -691.74769852 537.99217493 -688.8515625 540.46875 C-685.78880148 543.19586598 -682.95323382 546.14014012 -680.07421875 549.05859375 C-678.06116243 551.04329717 -676.00100472 552.90706291 -673.85546875 554.74609375 C-670.06188142 557.99774003 -666.58154228 561.50322469 -663.07421875 565.05859375 C-661.06116243 567.04329717 -659.00100472 568.90706291 -656.85546875 570.74609375 C-653.88406666 573.29300983 -651.10402865 575.95988234 -648.35546875 578.74609375 C-645.62717468 581.51169783 -642.87030041 584.15896406 -639.91796875 586.68359375 C-635.82488572 590.19078815 -632.08322171 594.00334533 -628.296875 597.8359375 C-625.58344148 600.51463907 -622.74769852 602.99217493 -619.8515625 605.46875 C-616.78880148 608.19586598 -613.95323382 611.14014012 -611.07421875 614.05859375 C-609.06116243 616.04329717 -607.00100472 617.90706291 -604.85546875 619.74609375 C-601.88406666 622.29300983 -599.10402865 624.95988234 -596.35546875 627.74609375 C-592.35519667 631.79447907 -588.1897073 635.5611136 -583.85546875 639.24609375 C-582.52209626 640.39188152 -581.18876073 641.53771229 -579.85546875 642.68359375 C-578.86546875 643.52921875 -577.87546875 644.37484375 -576.85546875 645.24609375 C-576.345 644.61445312 -575.83453125 643.9828125 -575.30859375 643.33203125 C-570.39487087 637.28571267 -565.38397951 631.33974132 -560.29760742 625.4387207 C-557.2849796 621.93600945 -554.32582552 618.3993967 -551.41796875 614.80859375 C-547.27550496 609.70381532 -542.97427776 604.74986693 -538.65478516 599.79541016 C-534.73045217 595.28374642 -530.92112838 590.69274869 -527.15625 586.046875 C-523.47774488 581.56896639 -519.68507219 577.1901008 -515.90625 572.796875 C-509.68024508 565.55793251 -503.49460635 558.28743466 -497.48046875 550.87109375 C-493.31390452 545.74875851 -488.99345594 540.77191997 -484.6550293 535.7956543 C-480.73057778 531.28394012 -476.92120092 526.6928382 -473.15625 522.046875 C-469.47774488 517.56896639 -465.68507219 513.1901008 -461.90625 508.796875 C-455.68024508 501.55793251 -449.49460635 494.28743466 -443.48046875 486.87109375 C-439.31390452 481.74875851 -434.99345594 476.77191997 -430.6550293 471.7956543 C-426.73057778 467.28394012 -422.92120092 462.6928382 -419.15625 458.046875 C-415.47774488 453.56896639 -411.68507219 449.1901008 -407.90625 444.796875 C-401.68024508 437.55793251 -395.49460635 430.28743466 -389.48046875 422.87109375 C-385.31390452 417.74875851 -380.99345594 412.77191997 -376.6550293 407.7956543 C-372.73057778 403.28394012 -368.92120092 398.6928382 -365.15625 394.046875 C-361.47774488 389.56896639 -357.68507219 385.1901008 -353.90625 380.796875 C-347.68024508 373.55793251 -341.49460635 366.28743466 -335.48046875 358.87109375 C-331.31390452 353.74875851 -326.99345594 348.77191997 -322.6550293 343.7956543 C-318.73057778 339.28394012 -314.92120092 334.6928382 -311.15625 330.046875 C-307.47774488 325.56896639 -303.68507219 321.1901008 -299.90625 316.796875 C-291.58078081 307.11689668 -283.40604569 297.32285223 -275.36328125 287.40625 C-272.69733605 284.15247216 -269.82811941 281.21874441 -266.85546875 278.24609375 C-261.4366269 272.42507224 -256.30674378 266.41101997 -251.3046875 260.23046875 C-248.53736175 256.85848012 -245.70399935 253.54943929 -242.85546875 250.24609375 C-239.30079661 246.12153764 -235.78754245 241.97401063 -232.35546875 237.74609375 C-227.96601057 232.34246473 -223.43864066 227.0657092 -218.8984375 221.7890625 C-214.64328984 216.84206486 -210.43672799 211.85424727 -206.22753906 206.86816406 C-204.82285994 205.20754341 -203.4139315 203.55061408 -202.00390625 201.89453125 C-195.93025518 194.75499866 -189.92577736 187.56880501 -184.23046875 180.12109375 C-180.13347397 174.76348519 -175.80565347 169.64300317 -171.39941406 164.54003906 C-168.33166054 160.98297407 -165.3150109 157.39440207 -162.35546875 153.74609375 C-157.96601057 148.34246473 -153.43864066 143.0657092 -148.8984375 137.7890625 C-144.6419495 132.84050659 -140.43379869 127.85130835 -136.22314453 122.86376953 C-134.83087458 121.21700396 -133.43541402 119.57299308 -132.0390625 117.9296875 C-127.80693242 112.94583127 -123.59809477 107.95050103 -119.48046875 102.87109375 C-115.31390452 97.74875851 -110.99345594 92.77191997 -106.6550293 87.7956543 C-102.73297335 83.28669418 -98.9251501 78.69911311 -95.1640625 74.0546875 C-91.93617522 70.12769773 -88.61315453 66.28527316 -85.29443359 62.43505859 C-82.28288845 58.93355122 -79.32480666 55.39813854 -76.41796875 51.80859375 C-72.27550496 46.70381532 -67.97427776 41.74986693 -63.65478516 36.79541016 C-59.73901647 32.29359249 -55.9383575 27.71219689 -52.1796875 23.078125 C-49.35998012 19.6423471 -46.49161239 16.25112293 -43.60546875 12.87109375 C-43.10974365 12.2877124 -42.61401855 11.70433105 -42.10327148 11.10327148 C-30.52481773 -2.40784694 -16.63964144 -10.22051848 0 0 Z " fill="#E7204D" transform="translate(1556.85546875,403.75390625)"/>
</svg>
