<?xml version="1.0" encoding="UTF-8"?>
<svg version="1.1" xmlns="http://www.w3.org/2000/svg" width="1999" height="591">
<path d="M0 0 C5.13484364 2.43229436 8.75642582 5.92575654 10.91015625 11.25 C13 17.31540698 13 17.31540698 13 20 C14.41152344 19.58427734 14.41152344 19.58427734 15.8515625 19.16015625 C17.71941406 18.61681641 17.71941406 18.61681641 19.625 18.0625 C20.85476563 17.70285156 22.08453125 17.34320313 23.3515625 16.97265625 C45.70439292 11.01349696 70.05486373 15.96534853 89.95288086 27.17675781 C105.26431927 36.22398396 115.89070464 48.85689485 125 64 C131.67401171 56.35634826 138.29895584 48.69456729 144.69140625 40.8125 C170.1945499 9.74268033 170.1945499 9.74268033 182 7 C189.36615935 6.29846101 196.29245496 7.47608436 202.49609375 11.69921875 C208.6883185 16.87465782 213.15659323 22.77678401 214 31 C214.76925107 40.80795119 211.70043031 47.90725738 205.4296875 55.24609375 C204.62789062 56.15488281 203.82609375 57.06367187 203 58 C202.06306807 59.09331049 201.12827973 60.18846056 200.1953125 61.28515625 C198.1659998 63.66769745 196.12948256 66.043717 194.0859375 68.4140625 C187.84305729 75.66019276 181.64947794 82.94590789 175.625 90.375 C171.45843577 95.49733524 167.13798719 100.47417378 162.79956055 105.45043945 C158.87510903 109.96215363 155.06573217 114.55325555 151.30078125 119.19921875 C147.62227613 123.67712736 143.82960344 128.05599295 140.05078125 132.44921875 C133.82477633 139.68816124 127.6391376 146.95865909 121.625 154.375 C117.45843577 159.49733524 113.13798719 164.47417378 108.79956055 169.45043945 C104.87510903 173.96215363 101.06573217 178.55325555 97.30078125 183.19921875 C93.61993587 187.6799762 89.82486807 192.06159186 86.04296875 196.45703125 C81.78648075 201.40558716 77.57832994 206.3947854 73.36767578 211.38232422 C71.97540583 213.02908979 70.57994527 214.67310067 69.18359375 216.31640625 C64.95146367 221.30026248 60.74262602 226.29559272 56.625 231.375 C52.45843577 236.49733524 48.13798719 241.47417378 43.79956055 246.45043945 C39.8775046 250.95939957 36.06968135 255.54698064 32.30859375 260.19140625 C29.0855316 264.11252585 25.77403231 267.95531476 22.44775391 271.7890625 C19.27532698 275.45866836 16.2758021 279.22003323 13.3125 283.0625 C8.74382475 288.71301092 3.83239974 291.72253342 -3 294 C-13.56060437 294.82801654 -21.42705151 294.04420866 -29.625 287.125 C-31.09345456 285.76081441 -32.54999165 284.38377632 -34 283 C-35.07807536 281.9972427 -36.15763085 280.99607545 -37.23828125 279.99609375 C-41.17446264 276.34730256 -45.0887531 272.67548537 -49 269 C-50.02456299 268.03731201 -50.02456299 268.03731201 -51.06982422 267.05517578 C-54.59565872 263.74097402 -58.11909455 260.4242432 -61.640625 257.10546875 C-64.62662656 254.29173651 -67.61659468 251.48230203 -70.609375 248.67578125 C-71.36557129 247.96599121 -72.12176758 247.25620117 -72.90087891 246.52490234 C-74.33462145 245.17929326 -75.76913378 243.83450367 -77.20458984 242.49072266 C-80.43621427 239.45567485 -83.62618757 236.39228425 -86.75 233.24609375 C-89.04781309 230.93236423 -91.37640788 228.72381738 -93.875 226.625 C-96.8846753 224.03365795 -99.71088616 221.32745217 -102.5 218.5 C-105.22829407 215.73439592 -107.98516834 213.08712969 -110.9375 210.5625 C-128.23313189 195.55446672 -128.23313189 195.55446672 -129.3671875 184.3828125 C-129.61592888 176.99373028 -129.40475989 171.07653344 -125 165 C-123.948125 163.4221875 -123.948125 163.4221875 -122.875 161.8125 C-117.98943522 156.32747942 -110.52606876 153.3649537 -103.29296875 152.9296875 C-88.04988984 153.3971073 -79.04393014 163.82510505 -68.92578125 174.10546875 C-67.03241908 175.96810699 -65.07785932 177.70834555 -63.0625 179.4375 C-60.07198284 182.00665271 -57.26883316 184.69317256 -54.5 187.5 C-51.77170593 190.26560408 -49.01483166 192.91287031 -46.0625 195.4375 C-41.96941697 198.9446944 -38.22775296 202.75725158 -34.44140625 206.58984375 C-31.73490358 209.26170319 -28.90941986 211.73478776 -26.015625 214.19921875 C-22.84342807 217.03329392 -19.92145315 220.10857104 -16.98046875 223.1796875 C-15.0372799 225.21488525 -15.0372799 225.21488525 -12 226 C-6.64350391 220.16230568 -1.4984133 214.20957728 3.484375 208.05078125 C6.42925052 204.47943376 9.45720087 200.9878836 12.5 197.5 C16.99761026 192.3416034 21.38995886 187.11842371 25.69921875 181.80078125 C29.38006413 177.3200238 33.17513193 172.93840814 36.95703125 168.54296875 C41.21351925 163.59441284 45.42167006 158.6052146 49.63232422 153.61767578 C51.02459417 151.97091021 52.42005473 150.32689933 53.81640625 148.68359375 C58.04853633 143.69973752 62.25737398 138.70440728 66.375 133.625 C69.45375892 129.84000247 72.60099105 126.12627685 75.8046875 122.44726562 C76.93024106 121.1544351 78.05266986 119.85887713 79.171875 118.56054688 C81.69415672 115.63481962 84.22969072 112.73664678 86.8671875 109.9140625 C91.95727501 104.57814358 91.95727501 104.57814358 93.4375 97.6875 C92.9280917 95.42768814 92.9280917 95.42768814 92 93 C91.6184375 91.90429688 91.236875 90.80859375 90.84375 89.6796875 C86.14118257 77.58363905 79.48694529 68.34227816 68 62 C59.81787717 58.43594119 52.66884077 56.8048805 43.8125 56.75 C42.59336914 56.7190625 42.59336914 56.7190625 41.34960938 56.6875 C35.39186552 56.64958278 30.52520292 57.79689699 25 60 C25.04640625 60.78503906 25.0928125 61.57007813 25.140625 62.37890625 C25.43003725 70.80286986 24.65573026 75.0217053 18.875 81.3125 C14.08316999 84.12509587 9.08319806 85.51143096 3.52734375 84.58984375 C-2.38180634 82.78454414 -6.59903426 80.36714902 -9.8125 74.9375 C-11 72 -11 72 -11 69 C-11.66829834 69.19110352 -12.33659668 69.38220703 -13.02514648 69.57910156 C-35.45119821 75.97390262 -35.45119821 75.97390262 -45 78.125 C-51.15085252 79.51311869 -57.16733085 81.18039865 -63.20288086 83.00219727 C-78.31449021 87.52793935 -93.6872843 91.22182631 -109 95 C-108.95359375 95.7734375 -108.9071875 96.546875 -108.859375 97.34375 C-108.62290502 104.16759807 -108.83690834 109.40415601 -113 115 C-117.29300077 119.18292383 -121.3594952 121.06867042 -127.3125 121.375 C-133.48027143 121.22080571 -137.99372178 118.95348142 -142.375 114.6875 C-144.32525177 111.46208361 -145.1386913 108.66056196 -146 105 C-155.45360762 108.65094947 -155.45360762 108.65094947 -164 114 C-164.62261719 114.45632812 -165.24523437 114.91265625 -165.88671875 115.3828125 C-175.27859191 122.78897534 -180.01889461 133.53527699 -182.6875 144.9375 C-183.59527276 153.83367304 -182.49402726 161.6513089 -180.375 170.3125 C-180.10502197 171.44824463 -179.83504395 172.58398926 -179.55688477 173.75415039 C-177.42489822 182.58560642 -175.00476791 191.31682957 -172.44140625 200.03125 C-170.99074645 204.97610775 -169.66854338 209.94954867 -168.375 214.9375 C-166.96361588 220.37600378 -165.50623109 225.79155339 -163.9375 231.1875 C-162.57758057 235.87773835 -161.33930248 240.58157506 -160.17578125 245.32421875 C-158.18875965 253.34908977 -156.05386072 261.3298213 -153.88143921 269.30621338 C-152.78335836 273.33861291 -151.69085108 277.37252365 -150.59765625 281.40625 C-150.37797684 282.21635529 -150.15829742 283.02646057 -149.93196106 283.8611145 C-147.83161837 291.61073372 -145.75507812 299.36658306 -143.6875 307.125 C-143.36072266 308.34960938 -143.03394531 309.57421875 -142.69726562 310.8359375 C-141.06656552 316.95692268 -139.45701582 323.08263837 -137.87475586 329.21630859 C-133.05101031 347.81383637 -127.7099751 363.61876557 -110.5 374.375 C-96.56465354 380.84498228 -83.37542457 380.92772208 -68.6875 377.375 C-67.54684082 377.10574707 -66.40618164 376.83649414 -65.23095703 376.55908203 C-57.47138105 374.69214085 -49.80237705 372.60479764 -42.19799805 370.18115234 C-36.72766585 368.44798995 -31.20047785 367.02556889 -25.63066101 365.65498352 C-16.61343 363.42753603 -7.65424458 360.98362916 1.3125 358.5625 C4.78755756 357.62554794 8.26286165 356.68951442 11.73828125 355.75390625 C12.58949554 355.5245488 13.44070984 355.29519135 14.31771851 355.05888367 C20.25657759 353.4612519 26.20279052 351.89321127 32.15234375 350.3359375 C38.54394552 348.661185 44.90946842 346.92249772 51.25 345.0625 C58.59915835 342.93710961 65.9705077 340.92363612 73.375 339 C74.32391113 338.75185547 75.27282227 338.50371094 76.25048828 338.24804688 C81.19284304 336.96214954 86.14180122 335.72006032 91.109375 334.53515625 C107.70212012 330.51692442 122.71236761 325.57247843 132.75 310.8125 C140.5745911 297.75365047 142.37002345 284.71964267 139 270 C138.46869292 268.16363765 137.92721097 266.33018494 137.375 264.5 C135.40352317 257.54953833 134.87523147 250.57279416 137.0625 243.625 C141.2915836 237.89527383 145.79105509 234.11862938 153 233 C159.14946153 232.92340528 164.15192713 234.15954912 169 238 C173.23327063 243.17766641 175.32722551 247.99400367 177.1875 254.375 C177.43435547 255.17421875 177.68121094 255.9734375 177.93554688 256.796875 C183.88614778 276.41005558 183.45456917 294.54217368 177 314 C176.71253906 314.94875 176.42507813 315.8975 176.12890625 316.875 C168.83425831 338.09579401 150.05775 355.37122058 130.4375 365.125 C119.44994243 370.25551668 107.55814474 372.98361049 95.86132812 376 C90.82989632 377.3030314 85.81129885 378.6520632 80.79174805 380 C75.78560201 381.34240093 70.77578709 382.67083664 65.76611328 384 C59.50932162 385.66133921 53.25476024 387.3310322 47 389 C39.58259347 390.97868049 32.16497124 392.95652851 24.74609375 394.9296875 C9.95447092 398.86572813 -4.82642846 402.83935151 -19.60040283 406.84106445 C-29.09542805 409.41263885 -38.59416676 411.96546986 -48.11474609 414.44116211 C-53.78273645 415.92197017 -59.40415284 417.53424274 -65.01953125 419.203125 C-80.79923137 423.42207497 -98.63107575 422.1740343 -114 417 C-115.11246094 416.649375 -116.22492188 416.29875 -117.37109375 415.9375 C-139.84303832 408.16808819 -157.08568204 390.76328242 -168.17578125 370.1640625 C-170.76737052 364.6752918 -172.31476092 358.81470562 -174 353 C-174.49560425 351.31197266 -174.49560425 351.31197266 -175.0012207 349.58984375 C-176.01236538 346.12560426 -177.00922362 342.65761745 -178 339.1875 C-178.35320313 337.9504834 -178.70640625 336.7134668 -179.0703125 335.43896484 C-181.13807763 328.15296466 -183.09254323 320.86372189 -184.87890625 313.50390625 C-186.47553957 307.00054613 -188.2143567 300.53323952 -189.9375 294.0625 C-190.11309448 293.40282227 -190.28868896 292.74314453 -190.46960449 292.06347656 C-192.79738459 283.334167 -195.23766894 274.64986375 -197.84130859 265.99902344 C-198.93507377 262.287981 -199.88344724 258.55191649 -200.80078125 254.79296875 C-203.20433896 245.05297916 -205.82245511 235.37241892 -208.4375 225.6875 C-209.37445206 222.21244245 -210.31049512 218.73714092 -211.24609375 215.26171875 C-211.4749527 214.41227188 -211.70381165 213.56282501 -211.93960571 212.68763733 C-213.75758638 205.9291456 -215.54364389 199.16251776 -217.30747986 192.38969421 C-218.83326523 186.55368772 -220.4845846 180.76293459 -222.203125 174.98046875 C-226.42207558 159.20076634 -225.66568601 140.26194168 -220 125 C-219.38125 123.14761719 -219.38125 123.14761719 -218.75 121.2578125 C-215.39559337 111.67344365 -210.33061638 103.88615335 -204 96 C-203.278125 95.09378906 -202.55625 94.18757813 -201.8125 93.25390625 C-191.06867929 80.59436751 -174.00921687 67.77463739 -157 66 C-157.4640625 64.9790625 -157.4640625 64.9790625 -157.9375 63.9375 C-160.20234648 57.67586562 -160.62964913 52.13986883 -158 46 C-154.70496378 40.7426333 -151.03652541 37.76932641 -145 36 C-138.66338493 35.29593166 -134.26392487 36.34794078 -129 40 C-125.25283529 43.37719149 -123.17398079 47.0906258 -122 52 C-122 53.32 -122 54.64 -122 56 C-121.36835937 55.81937012 -120.73671875 55.63874023 -120.0859375 55.45263672 C-108.30603098 52.09392058 -96.51736926 48.81419713 -84.625 45.875 C-83.62791016 45.62854736 -82.63082031 45.38209473 -81.60351562 45.12817383 C-79.65138723 44.64607769 -77.69923938 44.16406032 -75.74707031 43.68212891 C-63.10167473 40.54213288 -50.5746509 37.06421924 -38.09375 33.32250977 C-33.41208292 31.93137021 -28.85930761 30.62700743 -24 30 C-24.165 29.05125 -24.33 28.1025 -24.5 27.125 C-25.48871411 19.95682268 -26.20984164 13.24217899 -22 7 C-15.42875777 -0.41370918 -9.66616791 -0.97504309 0 0 Z " fill="#243A50" transform="translate(916,60)"/>
<path d="M0 0 C0.92554688 0.40089844 1.85109375 0.80179688 2.8046875 1.21484375 C18.11865621 8.69829871 27.48104073 21.37981361 33.95703125 36.78515625 C37.50224267 47.7129053 37.27203446 58.40247879 37.22705078 69.77001953 C37.22648601 71.77146906 37.22680452 73.772919 37.22793579 75.77436829 C37.22850771 81.18479726 37.21677945 86.59513687 37.20278788 92.00554514 C37.19025368 97.66831409 37.1891079 103.33108528 37.18673706 108.99386597 C37.18053019 119.70688272 37.1641301 130.41985847 37.14403808 141.1328572 C37.1216544 153.33357675 37.11067944 165.53429829 37.10064721 177.73503327 C37.07976317 202.82338346 37.04309683 227.91167746 37 253 C16.87 253 -3.26 253 -24 253 C-24.01458252 247.62468994 -24.02916504 242.24937988 -24.04418945 236.71118164 C-24.09451094 218.95746429 -24.16095171 201.20383435 -24.23571491 183.4502039 C-24.28065278 172.68548118 -24.32007213 161.92079141 -24.34643555 151.15600586 C-24.36943184 141.77183997 -24.4028482 132.38777849 -24.44870156 123.00369543 C-24.47261168 118.03632817 -24.49135498 113.06906417 -24.49761391 108.1016407 C-24.50367472 103.42224896 -24.52371067 98.74312136 -24.55427551 94.06382751 C-24.56303975 92.35025303 -24.56678167 90.636644 -24.56500816 88.92304802 C-24.26100794 74.59649015 -24.26100794 74.59649015 -30.4375 62.0625 C-34.91686902 58.4571542 -38.08063021 57.59568969 -43.7578125 57.75390625 C-48.60667581 58.28609856 -51.68900758 60.4226668 -54.8125 64 C-58.06633107 68.4623969 -58.15082686 71.99329718 -58.15821838 77.30815125 C-58.16315636 78.0580046 -58.16809434 78.80785796 -58.17318195 79.58043414 C-58.18857428 82.1000886 -58.19692227 84.61971754 -58.20532227 87.1394043 C-58.21489943 88.94278183 -58.22490941 90.74615712 -58.23532104 92.54953003 C-58.26239373 97.4520742 -58.2833905 102.35462802 -58.30332303 107.25720572 C-58.325168 112.37817891 -58.35256397 117.49912227 -58.37937927 122.62007141 C-58.42932631 132.32038864 -58.47425768 142.02072241 -58.51740164 151.72107202 C-58.56675683 162.76327283 -58.62168133 173.80544372 -58.67708123 184.8476156 C-58.79093215 207.56505054 -58.89702916 230.28251295 -59 253 C-79.13 253 -99.26 253 -120 253 C-120 169.84 -120 86.68 -120 1 C-103.83 1 -87.66 1 -71 1 C-70.01 6.28 -69.02 11.56 -68 17 C-67.01 15.80375 -66.02 14.6075 -65 13.375 C-49.13924444 -4.61109681 -21.83660779 -9.70177979 0 0 Z " fill="#23394F" transform="translate(1595,182)"/>
<path d="M0 0 C0.68449219 0.59167969 1.36898438 1.18335938 2.07421875 1.79296875 C14.13038966 12.9016999 22.9020526 29.90648381 24.18068314 46.31929207 C24.24344534 48.76533115 24.24783184 51.20388371 24.22705078 53.65063477 C24.22734283 54.56878464 24.22763489 55.48693451 24.22793579 56.4329071 C24.22655419 59.43583986 24.21104859 62.4385174 24.1953125 65.44140625 C24.1915782 67.53604497 24.1887332 69.63068544 24.18673706 71.72532654 C24.17913342 77.21453754 24.15951321 82.7036412 24.1373291 88.19281006 C24.11318494 94.79169751 24.10407412 101.39062103 24.09242249 107.9895401 C24.07308678 117.99310118 24.03474133 127.99642716 24 138 C-5.7 138 -35.4 138 -66 138 C-67.42693957 167.19591332 -67.42693957 167.19591332 -62 177 C-58.75293595 179.94265179 -56.08647349 180.918002 -51.6875 181.25 C-46.78510134 180.91763399 -43.51659278 179.67348168 -40.1875 176 C-35.57199569 168.22651906 -37.49795145 160.95902893 -37 151 C-16.87 151 3.26 151 24 151 C24 178.94111588 23.53853108 198.44562865 5 219 C4.40832031 219.68449219 3.81664062 220.36898437 3.20703125 221.07421875 C-8.09169626 233.3365904 -25.17398737 241.9145509 -41.82055664 243.22143555 C-65.25070433 244.11577422 -85.10325072 240.14155145 -103 224 C-103.68449219 223.40832031 -104.36898438 222.81664062 -105.07421875 222.20703125 C-117.29639313 210.94534208 -126.1070124 193.70108854 -127.19210434 177.05254745 C-127.27318615 173.61105258 -127.29309372 170.17439112 -127.29052734 166.73193359 C-127.29724457 165.42822815 -127.30396179 164.12452271 -127.31088257 162.78131104 C-127.32844131 159.22721208 -127.33323376 155.67320963 -127.33451414 152.11907148 C-127.33594258 149.89051423 -127.34022529 147.66198097 -127.34550858 145.43342972 C-127.36397855 137.63545443 -127.3721834 129.83754721 -127.37060547 122.03955078 C-127.36940634 114.80899043 -127.3904713 107.57872967 -127.4220928 100.34824502 C-127.44838706 94.11007474 -127.45896723 87.87200147 -127.45769465 81.63377631 C-127.45718867 77.92157977 -127.46266699 74.20964956 -127.48405075 70.497509 C-127.64308792 40.85940407 -127.64308792 40.85940407 -123 29 C-122.57957932 27.88317589 -122.57957932 27.88317589 -122.15066528 26.74378967 C-118.7807864 18.56888642 -113.88971333 11.53014817 -108 5 C-107.40832031 4.31550781 -106.81664062 3.63101563 -106.20703125 2.92578125 C-93.32309504 -11.05699814 -74.71188469 -18.49338766 -56.00390625 -19.8984375 C-35.02436661 -20.60775874 -15.62038861 -14.08844157 0 0 Z M-59 44 C-61.84362474 46.65234954 -64.25742695 49.5148539 -66 53 C-66.08658569 55.55362604 -66.11562516 58.0795442 -66.09765625 60.6328125 C-66.0962413 61.38464813 -66.09482635 62.13648376 -66.09336853 62.91110229 C-66.08776465 65.3157751 -66.07521157 67.72035527 -66.0625 70.125 C-66.0574855 71.75390491 -66.0529225 73.38281127 -66.04882812 75.01171875 C-66.03864424 79.00787702 -66.01906972 83.00383465 -66 87 C-56.43 87 -46.86 87 -37 87 C-36.90789363 82.26675594 -36.82834807 77.53665071 -36.78027344 72.80322266 C-36.76022373 71.19504226 -36.73297636 69.58693417 -36.69824219 67.97900391 C-36.64942736 65.6602998 -36.62696572 63.34256375 -36.609375 61.0234375 C-36.58872986 60.31069672 -36.56808472 59.59795593 -36.54681396 58.86361694 C-36.54454273 53.74977974 -37.82363126 50.95257103 -41 47 C-46.57776633 41.56901699 -51.8668009 40.94291467 -59 44 Z " fill="#23384E" transform="translate(1428,197)"/>
<path d="M0 0 C21.45 0 42.9 0 65 0 C72.59 52.47 80.18 104.94 88 159 C90.124375 144.60375 92.24875 130.2075 94.4375 115.375 C95.12924316 110.68756592 95.82098633 106.00013184 96.53369141 101.1706543 C99.34530079 82.10279642 102.15093607 63.03424541 104.8984375 43.95703125 C105.11215471 42.47472962 105.3258843 40.99242978 105.53962708 39.51013184 C106.50535762 32.80938724 107.46653979 26.10803317 108.42163086 19.40576172 C108.75624564 17.07648274 109.09095575 14.74721745 109.42578125 12.41796875 C109.57304657 11.37365189 109.72031189 10.32933502 109.87203979 9.25337219 C110.00748199 8.31535263 110.14292419 7.37733307 110.2824707 6.41088867 C110.39790726 5.60044601 110.51334381 4.79000336 110.63227844 3.95500183 C111 2 111 2 112 0 C133.45 0 154.9 0 177 0 C175.87500016 10.1249986 175.87500016 10.1249986 174.9715271 14.36677551 C174.76784421 15.33350724 174.56416132 16.30023897 174.35430622 17.2962656 C174.13216544 18.32876407 173.91002466 19.36126253 173.68115234 20.42504883 C173.32603341 22.10113047 173.32603341 22.10113047 172.96374035 23.81107235 C172.17527523 27.52728437 171.3806092 31.24214191 170.5859375 34.95703125 C170.02101969 37.61108314 169.45742689 40.26541596 168.89378357 42.91973877 C167.5317719 49.32992843 166.16520333 55.73913811 164.79706246 62.14802206 C163.21430218 69.56318104 161.63619137 76.97932702 160.05841029 84.39554679 C157.47604649 96.53327998 154.8907414 108.67038387 152.30317914 120.80700982 C148.9634477 136.47176487 145.63136559 152.13813155 142.30439711 167.80560189 C140.31061944 177.19466614 138.31498205 186.58333516 136.31939697 195.97201538 C135.31527418 200.69621323 134.31170311 205.4205278 133.30853271 210.14492798 C132.13799353 215.65690719 130.96572018 221.16851477 129.79207039 226.67983246 C129.36506175 228.68637069 128.93865021 230.69303609 128.51287651 232.69983673 C127.93702011 235.41359655 127.3590529 238.12689813 126.78051758 240.84008789 C126.61297155 241.63210507 126.44542553 242.42412226 126.27280235 243.24013996 C125.63510365 246.22179655 124.96514878 249.10455365 124 252 C100.24 252 76.48 252 52 252 C44.86303195 218.84158646 37.8713479 185.65418587 30.92250347 152.455935 C28.62614007 141.4854683 26.32887015 130.51519134 24.03143835 119.54494834 C23.6022057 117.49525894 23.17303217 115.44555716 22.74386978 113.39585304 C19.23034671 96.61583739 15.70465232 79.83845305 12.15683746 63.06564903 C11.53524241 60.12613768 10.91429967 57.18648941 10.29364014 54.2467804 C9.99807032 52.84685238 9.99807032 52.84685238 9.69652939 51.418643 C9.31066762 49.59093707 8.92483574 47.76322484 8.5390358 45.93550587 C7.4452925 40.75590949 6.3471822 35.57726349 5.24580956 30.39928436 C4.58147833 27.27109601 3.92120064 24.1420628 3.26210403 21.01276779 C2.96223646 19.59339026 2.66061935 18.17438098 2.35706711 16.7557869 C1.94942082 14.84997099 1.54849821 12.94272057 1.14794922 11.03540039 C0.92436737 9.98155655 0.70078552 8.92771271 0.47042847 7.8419342 C0 5 0 5 0 0 Z " fill="#243950" transform="translate(1120,183)"/>
<path d="M0 0 C7.09897663 4.83263668 11.35260541 10.3714018 13.75 18.5625 C14.69515101 27.7777223 13.37545032 35.3901523 7.5625 42.75 C6.05636919 44.51266957 4.53388703 46.2614303 3 48 C2.06306807 49.09331049 1.12827973 50.18846056 0.1953125 51.28515625 C-1.8340002 53.66769745 -3.87051744 56.043717 -5.9140625 58.4140625 C-12.15694271 65.66019276 -18.35052206 72.94590789 -24.375 80.375 C-28.54156423 85.49733524 -32.86201281 90.47417378 -37.20043945 95.45043945 C-41.12489097 99.96215363 -44.93426783 104.55325555 -48.69921875 109.19921875 C-52.37772387 113.67712736 -56.17039656 118.05599295 -59.94921875 122.44921875 C-66.17522367 129.68816124 -72.3608624 136.95865909 -78.375 144.375 C-82.54156423 149.49733524 -86.86201281 154.47417378 -91.20043945 159.45043945 C-95.12489097 163.96215363 -98.93426783 168.55325555 -102.69921875 173.19921875 C-106.38006413 177.6799762 -110.17513193 182.06159186 -113.95703125 186.45703125 C-118.21351925 191.40558716 -122.42167006 196.3947854 -126.63232422 201.38232422 C-128.02459417 203.02908979 -129.42005473 204.67310067 -130.81640625 206.31640625 C-135.04853633 211.30026248 -139.25737398 216.29559272 -143.375 221.375 C-147.54156423 226.49733524 -151.86201281 231.47417378 -156.20043945 236.45043945 C-160.1224954 240.95939957 -163.93031865 245.54698064 -167.69140625 250.19140625 C-170.9144684 254.11252585 -174.22596769 257.95531476 -177.55224609 261.7890625 C-180.72467302 265.45866836 -183.7241979 269.22003323 -186.6875 273.0625 C-191.25617525 278.71301092 -196.16760026 281.72253342 -203 284 C-213.56060437 284.82801654 -221.42705151 284.04420866 -229.625 277.125 C-231.09345456 275.76081441 -232.54999165 274.38377632 -234 273 C-235.07807536 271.9972427 -236.15763085 270.99607545 -237.23828125 269.99609375 C-241.17446264 266.34730256 -245.0887531 262.67548537 -249 259 C-250.02456299 258.03731201 -250.02456299 258.03731201 -251.06982422 257.05517578 C-254.59565872 253.74097402 -258.11909455 250.4242432 -261.640625 247.10546875 C-264.62662656 244.29173651 -267.61659468 241.48230203 -270.609375 238.67578125 C-271.36557129 237.96599121 -272.12176758 237.25620117 -272.90087891 236.52490234 C-274.33462145 235.17929326 -275.76913378 233.83450367 -277.20458984 232.49072266 C-280.43621427 229.45567485 -283.62618757 226.39228425 -286.75 223.24609375 C-289.04781309 220.93236423 -291.37640788 218.72381738 -293.875 216.625 C-296.8846753 214.03365795 -299.71088616 211.32745217 -302.5 208.5 C-305.22829407 205.73439592 -307.98516834 203.08712969 -310.9375 200.5625 C-328.23313189 185.55446672 -328.23313189 185.55446672 -329.3671875 174.3828125 C-329.61592888 166.99373028 -329.40475989 161.07653344 -325 155 C-323.948125 153.4221875 -323.948125 153.4221875 -322.875 151.8125 C-317.98943522 146.32747942 -310.52606876 143.3649537 -303.29296875 142.9296875 C-288.04988984 143.3971073 -279.04393014 153.82510505 -268.92578125 164.10546875 C-267.03241908 165.96810699 -265.07785932 167.70834555 -263.0625 169.4375 C-260.07198284 172.00665271 -257.26883316 174.69317256 -254.5 177.5 C-251.77170593 180.26560408 -249.01483166 182.91287031 -246.0625 185.4375 C-241.96941697 188.9446944 -238.22775296 192.75725158 -234.44140625 196.58984375 C-231.73490358 199.26170319 -228.90941986 201.73478776 -226.015625 204.19921875 C-222.84342807 207.03329392 -219.92145315 210.10857104 -216.98046875 213.1796875 C-215.0372799 215.21488525 -215.0372799 215.21488525 -212 216 C-206.64350391 210.16230568 -201.4984133 204.20957728 -196.515625 198.05078125 C-193.57074948 194.47943376 -190.54279913 190.9878836 -187.5 187.5 C-183.00238974 182.3416034 -178.61004114 177.11842371 -174.30078125 171.80078125 C-170.61993587 167.3200238 -166.82486807 162.93840814 -163.04296875 158.54296875 C-158.78648075 153.59441284 -154.57832994 148.6052146 -150.36767578 143.61767578 C-148.97540583 141.97091021 -147.57994527 140.32689933 -146.18359375 138.68359375 C-141.95146367 133.69973752 -137.74262602 128.70440728 -133.625 123.625 C-129.46580302 118.51172199 -125.15768095 113.53911453 -120.81933594 108.578125 C-116.66929579 103.81843294 -112.69439842 98.95245685 -108.8046875 93.9765625 C-107 92 -107 92 -104 91 C-103.28382239 89.69259346 -102.6213939 88.35502466 -102 87 C-101.13140484 85.8737974 -100.22127347 84.77869831 -99.27734375 83.71484375 C-98.74343018 83.10753418 -98.2095166 82.50022461 -97.65942383 81.87451172 C-97.09118896 81.23529785 -96.5229541 80.59608398 -95.9375 79.9375 C-94.75151765 78.5855878 -93.56662632 77.23271774 -92.3828125 75.87890625 C-91.80305664 75.21648926 -91.22330078 74.55407227 -90.62597656 73.87158203 C-85.70115733 68.20286368 -81.01322075 62.35545128 -76.47900391 56.37109375 C-71.79091176 50.18735679 -66.8617778 44.28196051 -61.74707031 38.44628906 C-58.59575042 34.84929045 -55.50751911 31.21939061 -52.5 27.5 C-21.913879 -10.12712492 -21.913879 -10.12712492 0 0 Z " fill="#E7204D" transform="translate(1116,70)"/>
<path d="M0 0 C20.13 0 40.26 0 61 0 C61 13.53 61 27.06 61 41 C69.25 41 77.5 41 86 41 C86 59.48 86 77.96 86 97 C77.75 97 69.5 97 61 97 C61.08541305 113.62012877 61.1789862 130.24014316 61.28752708 146.86013412 C61.33766107 154.57698329 61.38410388 162.29382179 61.421875 170.01074219 C61.45480346 176.73636194 61.49463937 183.46189912 61.54279006 190.18742776 C61.56804661 193.74894879 61.58983034 197.3104151 61.60334396 200.87200165 C61.61855453 204.84673338 61.64918568 208.82126437 61.68115234 212.79589844 C61.68331253 213.97841187 61.68547272 215.16092529 61.68769836 216.37927246 C61.69886185 217.46178284 61.71002533 218.54429321 61.7215271 219.65960693 C61.72705786 220.59983578 61.73258862 221.54006462 61.73828697 222.50878525 C62.02152351 225.20487973 62.46479193 226.76901355 64 229 C69.05227358 231.83562902 69.05227358 231.83562902 80 232 C80 252.46 80 272.92 80 294 C29.63268893 294 29.63268893 294 14 279 C5.37402584 270.01018861 -0.13034849 259.15352048 -0.12025452 246.59661865 C-0.12231651 244.61945862 -0.12231651 244.61945862 -0.12442017 242.60235596 C-0.12088121 241.14343239 -0.11724641 239.68450905 -0.11352539 238.22558594 C-0.11324329 236.68806968 -0.11340169 235.15055329 -0.1139679 233.61303711 C-0.11425499 229.43984156 -0.10837243 225.26667471 -0.10139394 221.09348583 C-0.0951458 216.73194206 -0.09455544 212.37039765 -0.09336853 208.0088501 C-0.09025953 199.74997338 -0.08205194 191.4911099 -0.07201904 183.23223901 C-0.06084454 173.82966674 -0.05534408 164.42709384 -0.05032361 155.02451658 C-0.03986898 135.68300335 -0.0220766 116.34150322 0 97 C-5.28 97 -10.56 97 -16 97 C-16 78.52 -16 60.04 -16 41 C-10.72 41 -5.44 41 0 41 C0 27.47 0 13.94 0 0 Z " fill="#253B52" transform="translate(1660,142)"/>
<path d="M0 0 C7.56808689 5.64695714 13.46602189 12.02790191 18.046875 20.2734375 C18.62050781 19.54898438 19.19414062 18.82453125 19.78515625 18.078125 C30.66724377 4.58358468 43.17196163 -6.99736583 61.046875 -9.7265625 C65.94527196 -10.0578497 70.82603654 -10.09671476 75.734375 -10.1015625 C77.02021484 -10.12605469 78.30605469 -10.15054688 79.63085938 -10.17578125 C96.26802171 -10.22622237 110.5945976 -4.67389918 122.6953125 6.79296875 C133.29760606 17.97645116 140.30953632 31.35986807 140.28738403 46.95507812 C140.28909288 47.68470229 140.29080173 48.41432646 140.29256237 49.16606045 C140.29583133 51.58737249 140.28489685 54.00840141 140.27392578 56.4296875 C140.27336111 58.17468764 140.27367933 59.91968825 140.27481079 61.66468811 C140.2753831 66.38518018 140.26364848 71.10556999 140.24966288 75.82603836 C140.23713524 80.7654493 140.23598341 85.70486274 140.23361206 90.64428711 C140.22740327 99.99031699 140.21100057 109.33629992 140.19091308 118.68230915 C140.16853539 129.32557458 140.15755595 139.96884229 140.14752221 150.6121254 C140.12663382 172.49925632 140.09106524 194.38634229 140.046875 216.2734375 C133.116875 216.2734375 126.186875 216.2734375 119.046875 216.2734375 C119.03878815 214.27275711 119.03070129 212.27207672 119.02236938 210.21076965 C118.94514224 191.33394553 118.85715294 172.45719325 118.75934792 153.58046436 C118.7093251 143.8763313 118.66288138 134.17220626 118.625 124.46801758 C118.59195551 116.00527557 118.5520564 107.5425977 118.50408494 99.07992667 C118.47894322 94.6031768 118.45712625 90.1264688 118.44353104 85.64966774 C118.4305979 81.42666064 118.40842514 77.20379802 118.37949181 72.9808712 C118.37050316 71.43990528 118.36474647 69.89891615 118.36266136 68.35792542 C118.33498525 50.99410974 117.0828239 36.73099913 104.7890625 23.609375 C94.2715169 14.6499843 82.54591658 12.51176999 69.13232422 13.09863281 C58.79247122 13.96533086 50.64219854 20.20065205 43.796875 27.5859375 C33.68847052 40.249522 33.74903721 55.09311332 33.72802734 70.62036133 C33.71870623 72.2183227 33.7085344 73.8162793 33.69758606 75.41423035 C33.6705177 79.71083411 33.65520621 84.00740553 33.64215803 88.30407166 C33.62642499 92.8097413 33.59966775 97.31534584 33.5741272 101.82096863 C33.52751821 110.33450954 33.49068812 118.84806294 33.45745432 127.36166543 C33.41910586 137.06194372 33.36972943 146.76215634 33.31947017 156.4623791 C33.21641656 176.39935067 33.12746168 196.33636354 33.046875 216.2734375 C26.116875 216.2734375 19.186875 216.2734375 12.046875 216.2734375 C12.03878815 214.25800842 12.03070129 212.24257935 12.02236938 210.16607666 C11.94516612 191.15649591 11.85718229 172.1469867 11.75934792 153.13750076 C11.70931 143.3649577 11.66286633 133.59242265 11.625 123.81982422 C11.59197135 115.29812833 11.5520807 106.77649634 11.50408494 98.25487113 C11.47892766 93.74629501 11.45711508 89.23776068 11.44353104 84.72913361 C11.43061229 80.47740269 11.40845423 76.2258159 11.37949181 71.97416496 C11.37049214 70.42149104 11.36474381 68.86879396 11.36266136 67.31609535 C11.33509451 49.86950795 9.74514676 36.51775136 -2.62890625 23.46875 C-5.83391823 20.44149499 -8.98753694 18.18625057 -12.953125 16.2734375 C-13.56929688 15.95632812 -14.18546875 15.63921875 -14.8203125 15.3125 C-23.93525002 11.44663156 -36.71703097 11.79323818 -46.015625 14.8359375 C-51.33434744 17.15727884 -55.69825514 20.3570232 -59.953125 24.2734375 C-60.9121875 25.15128906 -60.9121875 25.15128906 -61.890625 26.046875 C-73.64739362 38.05702225 -73.09856291 54.51139426 -73.15844727 70.16625977 C-73.16804079 71.76362859 -73.17805171 73.36099495 -73.18844604 74.95835876 C-73.21534153 79.271722 -73.23643363 83.585096 -73.25644803 87.89849591 C-73.27840299 92.41484844 -73.3057449 96.93116835 -73.33250427 101.44749451 C-73.38230314 109.9895082 -73.42728917 118.53154012 -73.47052664 127.07358927 C-73.52000885 136.80277589 -73.57488605 146.53192977 -73.63020623 156.26108468 C-73.74382955 176.26517192 -73.85051958 196.26929097 -73.953125 216.2734375 C-80.883125 216.2734375 -87.813125 216.2734375 -94.953125 216.2734375 C-95.04587551 193.42005764 -95.11718251 170.5667234 -95.16037369 147.71319294 C-95.18096463 137.10096628 -95.20901873 126.488859 -95.25488281 115.87670898 C-95.29485696 106.62294547 -95.320583 97.36926846 -95.32947898 88.115421 C-95.33467585 83.21937387 -95.3468176 78.32357412 -95.37604523 73.42760658 C-95.40338175 68.81061072 -95.41153347 64.19396197 -95.40555573 59.57689285 C-95.40664786 57.89076152 -95.41449244 56.20461746 -95.4299469 54.51855659 C-95.59596001 35.45690829 -90.46230669 19.84628809 -76.875 6.00390625 C-55.91122343 -13.5865748 -23.71136405 -15.55696812 0 0 Z " fill="#EA214E" transform="translate(316.953125,215.7265625)"/>
<path d="M0 0 C7.26 0 14.52 0 22 0 C22.23723785 1.91265152 22.47447571 3.82530304 22.71890259 5.7959137 C24.98245079 24.0441197 27.24688341 42.29221578 29.51215553 60.54020786 C30.67602633 69.91599197 31.8395948 79.29181341 33.00244141 88.66772461 C33.343121 91.41431971 33.68381132 94.16091348 34.02450991 96.90750623 C34.25011054 98.72629258 34.47568985 100.54508158 34.70124769 102.36387324 C35.91774876 112.17256181 37.13663163 121.98094325 38.36236572 131.78848267 C38.68473546 134.3686475 39.00708598 136.94881473 39.32941389 139.52898479 C39.53906164 141.20705939 39.74876419 142.88512715 39.95852327 144.56318784 C41.13609059 153.98796038 42.29703089 163.4142361 43.42016792 172.84566975 C43.95253908 177.30887273 44.4949472 181.77081955 45.03919601 186.23258781 C45.2743529 188.18475102 45.50431678 190.13754848 45.72847366 192.09100533 C46.02634386 194.68607222 46.34180514 197.27841088 46.66162109 199.87084961 C46.7392355 200.59236395 46.8168499 201.31387829 46.89681625 202.0572567 C47.80054693 209.08302229 50.89405097 216.02841805 56 221 C64.81431599 226.36457507 72.76301566 227.14459279 82.875 227.5625 C83.84953125 227.60568359 84.8240625 227.64886719 85.828125 227.69335938 C88.21862973 227.79882282 90.60924957 227.90031306 93 228 C93.04336487 227.15754038 93.08672974 226.31508076 93.13140869 225.44709206 C93.7808974 214.32705437 95.08790961 203.33062169 96.484375 192.28271484 C96.73941833 190.23942528 96.99408703 188.19608893 97.24841309 186.15270996 C97.93456107 180.64880981 98.62603241 175.14559074 99.31861877 169.64249754 C100.04440346 163.86901095 100.76555134 158.09494505 101.48730469 152.32095337 C102.69825558 142.63889468 103.91248705 132.95725202 105.12890625 123.27587891 C106.53508111 112.08408789 107.93696026 100.89176558 109.33636093 89.69912565 C110.82856536 77.76441269 112.32358431 65.83005362 113.81959534 53.89581728 C114.25000498 50.46089772 114.67992105 47.02591668 115.10974121 43.59092331 C115.78431016 38.20127204 116.46078641 32.81186345 117.13874817 27.42263794 C117.38730042 25.44458507 117.63522908 23.46645373 117.88249207 21.48823929 C118.21975759 18.79088154 118.55928927 16.09381854 118.89941406 13.39682007 C118.99698376 12.61229883 119.09455345 11.82777758 119.1950798 11.01948297 C119.66677729 7.29869449 120.26330114 3.68349432 121 0 C128.26 0 135.52 0 143 0 C142.25368851 12.99173057 140.63031855 25.83671308 139.01245117 38.74365234 C138.70323956 41.23200473 138.39432324 43.72039382 138.0856781 46.20881653 C137.25035922 52.93452039 136.41021603 59.65961065 135.56860137 66.38452864 C135.04188744 70.59347023 134.5163548 74.8025588 133.99105263 79.01167679 C132.53262893 90.69625108 131.0729819 102.38067074 129.6082716 114.06445885 C129.51484941 114.80968303 129.42142722 115.55490721 129.32517405 116.32271395 C129.13583737 117.83300669 128.94650011 119.34329936 128.7571623 120.85359196 C128.61621095 121.97793894 128.61621095 121.97793894 128.47241211 123.125 C128.37832718 123.87549278 128.28424225 124.62598556 128.18730626 125.39922054 C126.66304328 137.55984179 125.14788417 149.72157832 123.63670262 161.88383143 C122.08013548 174.41034195 120.51614345 186.93590723 118.94473821 199.46056521 C118.0646036 206.47688392 117.18753026 213.49355344 116.3186245 220.51127243 C115.50113654 227.11334595 114.67341432 233.71405925 113.83898354 240.31401634 C113.5356826 242.72571438 113.23568552 245.13783077 112.93937683 247.55039787 C108.80222574 281.1908891 108.80222574 281.1908891 102.25 293.375 C101.73457642 294.36512085 101.73457642 294.36512085 101.20874023 295.37524414 C98.1100923 301.14419127 94.42972344 306.17143173 90 311 C89.34773437 311.74378906 88.69546875 312.48757813 88.0234375 313.25390625 C72.4709747 330.000472 49.48922226 339.64594523 27 342 C22.68645847 342.11360049 18.3771296 342.09438754 14.0625 342.0625 C12.32129883 342.05573242 12.32129883 342.05573242 10.54492188 342.04882812 C7.6965922 342.0371066 4.84828926 342.01917323 2 342 C2 334.74 2 327.48 2 320 C3.546875 319.97421875 5.09375 319.9484375 6.6875 319.921875 C32.40618997 319.30302032 55.3707491 313.86551261 73.86328125 294.609375 C85.07411728 280.91862825 87.40284597 266.08015308 89 249 C88.14881592 249.02094727 87.29763184 249.04189453 86.4206543 249.06347656 C83.20943334 249.13236162 79.99859357 249.18214051 76.78686523 249.21972656 C75.406855 249.2396267 74.02692663 249.2667574 72.6472168 249.30175781 C58.12312554 249.66050761 48.02655496 246.59751344 37 237 C26.44771655 226.29155168 24.83939171 211.73898613 23.15332031 197.5480957 C22.90936563 195.60330617 22.66390622 193.65870489 22.41706848 191.71427917 C21.75497921 186.4638022 21.11423633 181.21092296 20.47773457 175.95729089 C19.80535065 170.43581573 19.11411304 164.91669915 18.42523193 159.39726257 C17.27081635 150.12601944 16.12929734 140.85326391 14.99658203 131.5793457 C13.54791173 119.71911319 12.07829373 107.86157717 10.60185623 96.00477314 C9.32654929 85.76198416 8.06070812 75.51802851 6.79646969 65.27386832 C6.39278175 62.00574163 5.98786782 58.73776853 5.58280182 55.46981239 C4.94367664 50.30839585 4.31049625 45.14628061 3.68167686 39.98359871 C3.45172909 38.10219824 3.22002013 36.22101195 2.98629951 34.34007645 C1.56515637 22.88991314 0.56399035 11.52676523 0 0 Z " fill="#E8214D" transform="translate(493,207)"/>
<path d="M0 0 C37.64875265 0 37.64875265 0 46.171875 7.90234375 C55.15260895 18.20716027 54.76397663 31.1199199 54 44 C52.96363058 51.16675801 49.95821138 56.73190041 45 62 C44.01 62.66 43.02 63.32 42 64 C42.53109375 64.37511719 43.0621875 64.75023437 43.609375 65.13671875 C49.91726885 69.70648856 54.83332336 74.26257341 57 82 C57.48621009 86.44234318 57.50972365 90.84691493 57.5 95.3125 C57.52835937 96.48490234 57.55671875 97.65730469 57.5859375 98.86523438 C57.60549923 107.62399846 56.06836127 114.55225594 50.0390625 121.14379883 C36.44013559 134.31775927 18.38854653 129 0 129 C0 86.43 0 43.86 0 0 Z M8 9 C8 26.16 8 43.32 8 61 C24.80482256 61.83711087 24.80482256 61.83711087 39 55 C45.83823668 46.83210619 45.55840642 36.74154358 44.828125 26.6171875 C43.84857719 19.9236108 40.0773553 15.32718749 35 11 C27.49311293 7.63823419 27.49311293 7.63823419 8 9 Z M8 69 C8 85.83 8 102.66 8 120 C12.125 120.103125 16.25 120.20625 20.5 120.3125 C21.78455078 120.35802002 23.06910156 120.40354004 24.39257812 120.45043945 C31.59689314 120.53729919 36.49768374 119.84371378 42 115 C47.91226014 108.77656827 48.38577018 102.92403724 48.4375 94.6875 C48.47037109 93.77548828 48.50324219 92.86347656 48.53710938 91.92382812 C48.60223314 83.66495089 45.8672857 78.99761687 40.25 73.125 C30.70398411 66.88337422 18.81679559 69 8 69 Z " fill="#000000" transform="translate(219,64)"/>
<path d="M0 0 C2.64 0 5.28 0 8 0 C8.33 23.76 8.66 47.52 9 72 C14.28 62.43 19.56 52.86 25 43 C31.36236206 31.67616294 37.75870913 20.37514848 44.25 9.125 C44.71639893 8.31530762 45.18279785 7.50561523 45.66333008 6.67138672 C46.0889624 5.93678223 46.51459473 5.20217773 46.953125 4.4453125 C47.32598633 3.80094238 47.69884766 3.15657227 48.08300781 2.49267578 C49 1 49 1 50 0 C51.68608966 -0.07205511 53.37500659 -0.08386068 55.0625 -0.0625 C55.98160156 -0.05347656 56.90070313 -0.04445312 57.84765625 -0.03515625 C58.55792969 -0.02355469 59.26820313 -0.01195312 60 0 C58.27911667 4.59914193 56.00373174 8.77870461 53.6242218 13.06539917 C53.28191025 13.68214508 52.93959869 14.29889099 52.58691406 14.93432617 C52.05862 15.88352432 52.05862 15.88352432 51.51965332 16.85189819 C50.42574033 18.8338057 49.3529359 20.82596212 48.28417969 22.8215332 C42.27404036 33.96389474 42.27404036 33.96389474 38.51953125 38.2734375 C35.39484941 41.97038265 33.24123301 45.04227864 33 50 C34.62732037 59.23107068 38.41688513 67.9222255 41.97827148 76.54580688 C45.71554732 85.61566954 48.97303403 94.8498033 52.24145508 104.09674072 C53.24053498 106.91083997 54.2538868 109.71940524 55.27148438 112.52685547 C55.89462179 114.25615227 56.51767296 115.98548016 57.140625 117.71484375 C57.43072449 118.51016006 57.72082397 119.30547638 58.01971436 120.12489319 C59.12200274 123.2058549 60 125.70143952 60 129 C56.7 129 53.4 129 50 129 C46.99748217 120.56090167 43.99833388 112.12061587 41.00351715 103.67878151 C39.61289683 99.75921834 38.22110589 95.84007902 36.82666016 91.921875 C35.48175853 88.14274816 34.13990525 84.36255197 32.80018616 80.58158493 C32.28773615 79.13706074 31.77417663 77.69292967 31.25950623 76.2491951 C30.5405325 74.23176589 29.82546591 72.21299285 29.11132812 70.19384766 C28.7027356 69.04357086 28.29414307 67.89329407 27.87316895 66.7081604 C27 64 27 64 27 62 C26.34 62 25.68 62 25 62 C24.73646729 62.72896484 24.47293457 63.45792969 24.20141602 64.20898438 C22.99009336 67.02301417 21.57196923 69.18118457 19.77734375 71.65625 C7.21669757 90.32127247 7.04861634 107.1092677 8 129 C5.36 129 2.72 129 0 129 C0 86.43 0 43.86 0 0 Z " fill="#000000" transform="translate(447,64)"/>
<path d="M0 0 C7.03492736 4.19253247 11.94511968 10.17694366 14.4375 18 C14.85072725 20.94103617 14.86840868 23.83918781 14.85742188 26.8059082 C14.86589142 27.65893524 14.87436096 28.51196228 14.88308716 29.39083862 C14.90637285 32.19430701 14.9074812 34.9972237 14.90625 37.80078125 C14.91335752 39.76222449 14.92105738 41.72366566 14.92932129 43.68510437 C14.9427474 47.79134909 14.94434364 51.89740162 14.93847656 56.00366211 C14.93258746 61.2457754 14.96314832 66.48696031 15.00359344 71.72889423 C15.02954335 75.77917889 15.03234115 79.8292423 15.02870178 83.87959862 C15.03038673 85.81116248 15.03996859 87.74273726 15.05784607 89.67421913 C15.23210861 110.83120883 15.23210861 110.83120883 7.44763184 119.11836243 C0.68522258 125.64403481 -6.18452705 127.56627928 -15.49389648 127.48046875 C-24.01667573 127.18145838 -29.73179603 124.27615527 -35.5 118.125 C-40.73545856 111.97623049 -42.01135599 106.00704783 -41.98242188 98.1940918 C-41.99089142 97.34106476 -41.99936096 96.48803772 -42.00808716 95.60916138 C-42.03137285 92.80569299 -42.0324812 90.0027763 -42.03125 87.19921875 C-42.03835752 85.23777551 -42.04605738 83.27633434 -42.05432129 81.31489563 C-42.0677474 77.20865091 -42.06934364 73.10259838 -42.06347656 68.99633789 C-42.05758746 63.7542246 -42.08814832 58.51303969 -42.12859344 53.27110577 C-42.15454335 49.22082111 -42.15734115 45.1707577 -42.15370178 41.12040138 C-42.15538673 39.18883752 -42.16496859 37.25726274 -42.18284607 35.32578087 C-42.35710861 14.16879117 -42.35710861 14.16879117 -34.57263184 5.88163757 C-25.46710078 -2.90512914 -11.63287482 -5.28118244 0 0 Z M-29.96875 14.74609375 C-33.56484814 20.51269398 -33.68741476 26.53554555 -33.70776367 33.14770508 C-33.71112228 33.83638168 -33.7144809 34.52505829 -33.71794128 35.23460388 C-33.7273881 37.49626503 -33.72939129 39.75785164 -33.73046875 42.01953125 C-33.73368591 43.60365325 -33.73705032 45.18777497 -33.74055481 46.77189636 C-33.74653057 50.08792814 -33.74839633 53.40393392 -33.74780273 56.7199707 C-33.74770125 60.94964579 -33.76134603 65.17915248 -33.77857494 69.40878773 C-33.78974499 72.68007662 -33.7917204 75.95132545 -33.79119301 79.22263145 C-33.79236587 80.7809984 -33.7967483 82.33936663 -33.80452538 83.89771461 C-34.21014566 100.20562925 -34.21014566 100.20562925 -26.5625 114 C-21.40730846 118.10311164 -17.05019701 118.69522638 -10.5 118.44140625 C-5.03700467 117.62050403 -1.51697945 115.33560294 2 111.1328125 C6.3554504 104.77286505 6.55942696 98.31078341 6.58276367 90.72290039 C6.58612228 90.03247147 6.5894809 89.34204254 6.59294128 88.63069153 C6.60236722 86.369661 6.60438997 84.10870515 6.60546875 81.84765625 C6.6086865 80.26256786 6.61205095 78.67747975 6.61555481 77.09239197 C6.62152471 73.77814038 6.62339685 70.46391479 6.62280273 67.1496582 C6.62270109 62.91879256 6.63636558 58.68809463 6.65357494 54.45726871 C6.66473246 51.18602239 6.66672081 47.91481618 6.66619301 44.64355278 C6.66736699 43.08435932 6.67175586 41.52516461 6.67952538 39.96599007 C7.02487938 25.00593478 7.02487938 25.00593478 0.4375 12 C-3.80461662 8.11651643 -7.75974181 6.62693453 -13.5 6.3125 C-20.50340904 6.63123922 -25.56434127 9.27728624 -29.96875 14.74609375 Z " fill="#000000" transform="translate(410.5625,66)"/>
<path d="M0 0 C7.03492736 4.19253247 11.94511968 10.17694366 14.4375 18 C14.85072725 20.94103617 14.86840868 23.83918781 14.85742188 26.8059082 C14.86589142 27.65893524 14.87436096 28.51196228 14.88308716 29.39083862 C14.90637285 32.19430701 14.9074812 34.9972237 14.90625 37.80078125 C14.91335752 39.76222449 14.92105738 41.72366566 14.92932129 43.68510437 C14.9427474 47.79134909 14.94434364 51.89740162 14.93847656 56.00366211 C14.93258746 61.2457754 14.96314832 66.48696031 15.00359344 71.72889423 C15.02954335 75.77917889 15.03234115 79.8292423 15.02870178 83.87959862 C15.03038673 85.81116248 15.03996859 87.74273726 15.05784607 89.67421913 C15.23210861 110.83120883 15.23210861 110.83120883 7.44763184 119.11836243 C0.68522258 125.64403481 -6.18452705 127.56627928 -15.49389648 127.48046875 C-24.01667573 127.18145838 -29.73179603 124.27615527 -35.5 118.125 C-40.73545856 111.97623049 -42.01135599 106.00704783 -41.98242188 98.1940918 C-41.99089142 97.34106476 -41.99936096 96.48803772 -42.00808716 95.60916138 C-42.03137285 92.80569299 -42.0324812 90.0027763 -42.03125 87.19921875 C-42.03835752 85.23777551 -42.04605738 83.27633434 -42.05432129 81.31489563 C-42.0677474 77.20865091 -42.06934364 73.10259838 -42.06347656 68.99633789 C-42.05758746 63.7542246 -42.08814832 58.51303969 -42.12859344 53.27110577 C-42.15454335 49.22082111 -42.15734115 45.1707577 -42.15370178 41.12040138 C-42.15538673 39.18883752 -42.16496859 37.25726274 -42.18284607 35.32578087 C-42.35710861 14.16879117 -42.35710861 14.16879117 -34.57263184 5.88163757 C-25.46710078 -2.90512914 -11.63287482 -5.28118244 0 0 Z M-29.96875 14.74609375 C-33.56484814 20.51269398 -33.68741476 26.53554555 -33.70776367 33.14770508 C-33.71112228 33.83638168 -33.7144809 34.52505829 -33.71794128 35.23460388 C-33.7273881 37.49626503 -33.72939129 39.75785164 -33.73046875 42.01953125 C-33.73368591 43.60365325 -33.73705032 45.18777497 -33.74055481 46.77189636 C-33.74653057 50.08792814 -33.74839633 53.40393392 -33.74780273 56.7199707 C-33.74770125 60.94964579 -33.76134603 65.17915248 -33.77857494 69.40878773 C-33.78974499 72.68007662 -33.7917204 75.95132545 -33.79119301 79.22263145 C-33.79236587 80.7809984 -33.7967483 82.33936663 -33.80452538 83.89771461 C-34.21014566 100.20562925 -34.21014566 100.20562925 -26.5625 114 C-21.40730846 118.10311164 -17.05019701 118.69522638 -10.5 118.44140625 C-5.03700467 117.62050403 -1.51697945 115.33560294 2 111.1328125 C6.3554504 104.77286505 6.55942696 98.31078341 6.58276367 90.72290039 C6.58612228 90.03247147 6.5894809 89.34204254 6.59294128 88.63069153 C6.60236722 86.369661 6.60438997 84.10870515 6.60546875 81.84765625 C6.6086865 80.26256786 6.61205095 78.67747975 6.61555481 77.09239197 C6.62152471 73.77814038 6.62339685 70.46391479 6.62280273 67.1496582 C6.62270109 62.91879256 6.63636558 58.68809463 6.65357494 54.45726871 C6.66473246 51.18602239 6.66672081 47.91481618 6.66619301 44.64355278 C6.66736699 43.08435932 6.67175586 41.52516461 6.67952538 39.96599007 C7.02487938 25.00593478 7.02487938 25.00593478 0.4375 12 C-3.80461662 8.11651643 -7.75974181 6.62693453 -13.5 6.3125 C-20.50340904 6.63123922 -25.56434127 9.27728624 -29.96875 14.74609375 Z " fill="#000000" transform="translate(334.5625,66)"/>
</svg>
